<svg class="animated" id="freepik_stories-decision-fatigue" xmlns="http://www.w3.org/2000/svg" viewBox="0 0 500 500" version="1.1" xmlns:xlink="http://www.w3.org/1999/xlink" xmlns:svgjs="http://svgjs.com/svgjs"><style>svg#freepik_stories-decision-fatigue:not(.animated) .animable {opacity: 0;}svg#freepik_stories-decision-fatigue.animated #freepik--Symbols--inject-77 {animation: 3s Infinite  linear floating;animation-delay: 0s;}svg#freepik_stories-decision-fatigue.animated #freepik--Lines--inject-77 {animation: 1s 1 forwards cubic-bezier(.36,-0.01,.5,1.38) slideUp;animation-delay: 0s;}svg#freepik_stories-decision-fatigue.animated #freepik--Character--inject-77 {animation: 1s 1 forwards cubic-bezier(.36,-0.01,.5,1.38) fadeIn;animation-delay: 0s;}            @keyframes floating {                0% {                    opacity: 1;                    transform: translateY(0px);                }                50% {                    transform: translateY(-10px);                }                100% {                    opacity: 1;                    transform: translateY(0px);                }            }                    @keyframes slideUp {                0% {                    opacity: 0;                    transform: translateY(30px);                }                100% {                    opacity: 1;                    transform: inherit;                }            }                    @keyframes fadeIn {                0% {                    opacity: 0;                }                100% {                    opacity: 1;                }            }        </style><g id="freepik--Floor--inject-77" class="animable" style="transform-origin: 249.995px 348.949px;"><g id="freepik--floor--inject-77" class="animable" style="transform-origin: 249.995px 348.949px;"><path id="freepik--floor--inject-77" d="M77.66,249.44c-95.18,54.95-95.17,144,0,199s249.49,55,344.67,0,95.17-144,0-199S172.84,194.49,77.66,249.44Z" style="fill: rgb(0, 255, 136); transform-origin: 249.995px 348.949px;" class="animable"></path><g id="freepik--floor--inject-77"><path d="M77.66,249.44c-95.18,54.95-95.17,144,0,199s249.49,55,344.67,0,95.17-144,0-199S172.84,194.49,77.66,249.44Z" style="fill: rgb(255, 255, 255); opacity: 0.6; transform-origin: 249.995px 348.949px;" class="animable"></path></g></g><path d="M453.12,426.75C446,422.9,438,418.59,429.5,413.92c-40.18-22.52-81.21-44.9-116.22-75.21-14.1-12.83-18.49-30.67-20.51-53.21-1.8-20.12-2.52-65.31-2.66-75.36a421.46,421.46,0,0,0-80.21,0c-.15,10.05-.87,55.24-2.67,75.36-2,22.53-6.41,40.38-20.5,53.21-35,30.31-76,52.69-116.23,75.21-8.51,4.67-16.48,9-23.61,12.83a196.86,196.86,0,0,0,30.78,21.68,255.31,255.31,0,0,0,25.4,12.78l1.43-.79c38.42-21.34,87.32-54.66,120.71-77.12l.16-.11c9.18-6.07,16.94-8.88,24.27-9,.12,0,.24,0,.36,0s.24,0,.36,0c7.34.15,15.1,3,24.27,9l.16.11c33.38,22.45,82.26,55.76,120.67,77.1l1.47.81a255.49,255.49,0,0,0,25.41-12.78A197.33,197.33,0,0,0,453.12,426.75Z" style="fill: rgb(240, 240, 240); transform-origin: 250.005px 334.719px;" id="elfeejsy5hc9d" class="animable"></path></g><g id="freepik--Shadows--inject-77" class="animable" style="transform-origin: 249.725px 382.67px;"><g id="freepik--Shadow--inject-77"><polygon points="375.55 348.5 365.85 354.17 432.96 392.86 442.67 387.19 375.55 348.5" style="fill: rgb(0, 255, 136); opacity: 0.3; transform-origin: 404.26px 370.68px;" class="animable"></polygon></g><g id="freepik--shadow--inject-77"><polygon points="123.9 348.5 133.6 354.17 66.49 392.86 56.78 387.19 123.9 348.5" style="fill: rgb(0, 255, 136); opacity: 0.3; transform-origin: 95.19px 370.68px;" class="animable"></polygon></g><g id="freepik--shadow--inject-77"><path d="M198.27,352.82c-28.24,16.49-28.24,43.21,0,59.7s74,16.49,102.25,0,28.24-43.21,0-59.7S226.5,336.33,198.27,352.82Z" style="opacity: 0.15; transform-origin: 249.397px 382.67px;" class="animable"></path></g></g><g id="freepik--Symbols--inject-77" class="animable" style="transform-origin: 247.436px 123.203px;"><g id="freepik--question-marks--inject-77" class="animable" style="transform-origin: 247.436px 123.203px;"><path id="freepik--question-mark--inject-77" d="M449.09,207.49a4.54,4.54,0,0,0-3.15-1.48,4.55,4.55,0,0,0-1.66.24,4.59,4.59,0,0,0-2.9,4,4.14,4.14,0,0,0,.24,1.65,4.07,4.07,0,0,0,.87,1.42,4.72,4.72,0,0,0,3.15,1.49,4.3,4.3,0,0,0,3.1-1.08,4.08,4.08,0,0,0,1.05-1.42,4.37,4.37,0,0,0,.16-3.37A4.63,4.63,0,0,0,449.09,207.49Zm19.2-22.62a10.37,10.37,0,0,0-2.38-3.32,14.35,14.35,0,0,0-3.87-2.61,16.63,16.63,0,0,0-3.28-1.17,15.46,15.46,0,0,0-3.07-.44,15.3,15.3,0,0,0-2.89.15,21.33,21.33,0,0,0-2.67.57l.43,3.52a1.58,1.58,0,0,0,1,1.44,1.91,1.91,0,0,0,1.05.09c.43-.06,1-.11,1.57-.16a10.54,10.54,0,0,1,2.11.1,9.53,9.53,0,0,1,2.7.87,6.78,6.78,0,0,1,1.77,1.19,5,5,0,0,1,1.12,1.55,4.21,4.21,0,0,1,.38,1.75,4.35,4.35,0,0,1-.45,1.87,5.51,5.51,0,0,1-1.82,2.25,9.21,9.21,0,0,1-2.44,1.19,19.37,19.37,0,0,1-2.73.65,19.24,19.24,0,0,0-2.61.6A7.37,7.37,0,0,0,450,196a3.8,3.8,0,0,0-1.38,2l-1.58,4.5,4.45,2.1,2.42-3.56a2.94,2.94,0,0,1,1.52-1.13,17,17,0,0,1,2.24-.62l2.66-.56a12,12,0,0,0,2.79-1,10.7,10.7,0,0,0,2.65-1.85,10.45,10.45,0,0,0,2.21-3.19,10,10,0,0,0,1-4.06A9,9,0,0,0,468.29,184.87Z" style="fill: rgb(235, 235, 235); transform-origin: 455.179px 196.066px;" class="animable"></path><path id="freepik--question-mark--inject-77" d="M356.93,154.72a4.36,4.36,0,0,0,1.33-1.19,4.25,4.25,0,0,0,.82-3.18,4.54,4.54,0,0,0-.59-1.65,4.36,4.36,0,0,0-2.65-2,4.06,4.06,0,0,0-1.67-.08,4.6,4.6,0,0,0-3,1.76,4.3,4.3,0,0,0-.28,4.84,4.17,4.17,0,0,0,1.17,1.3,4.27,4.27,0,0,0,1.52.73,5,5,0,0,0,1.68.1A4.33,4.33,0,0,0,356.93,154.72Zm18.92,16.39a1.59,1.59,0,0,0-1.75,0,1.91,1.91,0,0,0-.67.82c-.19.4-.44.86-.75,1.39a10.48,10.48,0,0,1-1.27,1.69,9.27,9.27,0,0,1-2.24,1.74,6.89,6.89,0,0,1-2,.79,5.16,5.16,0,0,1-1.91.06,4.32,4.32,0,0,1-1.66-.68,4.23,4.23,0,0,1-1.29-1.42,5.58,5.58,0,0,1-.84-2.77,9.13,9.13,0,0,1,.4-2.69,19.8,19.8,0,0,1,1-2.62,18.69,18.69,0,0,0,1-2.5,7.2,7.2,0,0,0,.35-2.4,3.88,3.88,0,0,0-.88-2.27l-2.83-3.84-4.24,2.5,1.57,4a3,3,0,0,1,.09,1.89,17,17,0,0,1-.76,2.2l-1,2.52a12,12,0,0,0-.77,2.85,10.64,10.64,0,0,0,0,3.23,10.35,10.35,0,0,0,1.39,3.63,10,10,0,0,0,2.78,3.13,8.85,8.85,0,0,0,3.57,1.53,10.43,10.43,0,0,0,4.08-.09,14.53,14.53,0,0,0,4.34-1.73,16.83,16.83,0,0,0,2.81-2.05,15.9,15.9,0,0,0,2.1-2.29,15.51,15.51,0,0,0,1.5-2.47,20.38,20.38,0,0,0,1-2.53Z" style="fill: rgb(235, 235, 235); transform-origin: 364.623px 165.309px;" class="animable"></path><path id="freepik--question-mark--inject-77" d="M404.17,48.3a3.55,3.55,0,0,1-1.69,1.44,20,20,0,0,1-2.59.88l-3.08.86a14,14,0,0,0-3.2,1.33,12.53,12.53,0,0,0-3,2.38,12.07,12.07,0,0,0-2.37,3.9,11.73,11.73,0,0,0-.9,4.83,10.62,10.62,0,0,0,1.15,4.42,12.22,12.22,0,0,0,3,3.73,16.82,16.82,0,0,0,4.74,2.77A19.72,19.72,0,0,0,400.21,76a17.91,17.91,0,0,0,7-.09,23.22,23.22,0,0,0,3.09-.87l-.76-4.1a1.86,1.86,0,0,0-1.27-1.61,2.12,2.12,0,0,0-1.24,0q-.76.15-1.83.3a11.9,11.9,0,0,1-2.49,0,11,11,0,0,1-3.22-.82,8.1,8.1,0,0,1-2.17-1.27,5.92,5.92,0,0,1-1.43-1.73,5.19,5.19,0,0,1-.57-2,5,5,0,0,1,.39-2.22,6.49,6.49,0,0,1,2-2.77,11.05,11.05,0,0,1,2.78-1.58,22.45,22.45,0,0,1,3.15-.95,24.38,24.38,0,0,0,3-.9,8.47,8.47,0,0,0,2.48-1.41,4.5,4.5,0,0,0,1.47-2.45l1.53-5.39L406.75,44Zm13.67-13.59a5,5,0,0,0-1.13-1.61,5.54,5.54,0,0,0-3.8-1.51A5.14,5.14,0,0,0,411,32a5.2,5.2,0,0,0-1.64,1.1,5.26,5.26,0,0,0-1.5,3.77,5,5,0,0,0,.43,1.93,5.4,5.4,0,0,0,1.12,1.63,4.94,4.94,0,0,0,1.74,1.13,5.12,5.12,0,0,0,2.06.38,5,5,0,0,0,3.54-1.53,5.34,5.34,0,0,0,1.11-1.73,5.28,5.28,0,0,0,.39-2A5.06,5.06,0,0,0,417.84,34.71Z" style="fill: rgb(235, 235, 235); transform-origin: 402.793px 53.9459px;" class="animable"></path><path id="freepik--question-mark--inject-77" d="M472.67,146.87a5.23,5.23,0,0,0-2-3.55,5.09,5.09,0,0,0-1.77-.89,5.4,5.4,0,0,0-2-.16,5.21,5.21,0,0,0-2,.63,5,5,0,0,0-1.59,1.36,5.15,5.15,0,0,0-.91,1.75,4.93,4.93,0,0,0-.14,2,5.35,5.35,0,0,0,2,3.55,4.84,4.84,0,0,0,1.73.89,4.92,4.92,0,0,0,2,.15,5.36,5.36,0,0,0,4.49-3.73A5.35,5.35,0,0,0,472.67,146.87Zm-8.52-13.63a3.53,3.53,0,0,1,0-2.23,19.94,19.94,0,0,1,.94-2.56c.41-.92.84-1.89,1.29-2.93a13.83,13.83,0,0,0,1-3.33,12.35,12.35,0,0,0,0-3.8,12,12,0,0,0-1.53-4.3,11.75,11.75,0,0,0-3.18-3.75,10.32,10.32,0,0,0-4.15-1.9,12.29,12.29,0,0,0-4.8,0,17.33,17.33,0,0,0-5.14,1.92,20.35,20.35,0,0,0-3.37,2.32,18.93,18.93,0,0,0-2.53,2.64,18.67,18.67,0,0,0-1.83,2.86,22.7,22.7,0,0,0-1.28,3l3.65,2a1.88,1.88,0,0,0,2.06,0,2.21,2.21,0,0,0,.81-.94c.24-.46.55-1,.92-1.61a12.65,12.65,0,0,1,1.54-2,10.9,10.9,0,0,1,2.68-2,8.23,8.23,0,0,1,2.35-.88,5.88,5.88,0,0,1,2.25,0,4.91,4.91,0,0,1,1.93.84,5.07,5.07,0,0,1,1.48,1.71,6.45,6.45,0,0,1,.9,3.27,10.69,10.69,0,0,1-.54,3.16,22.8,22.8,0,0,1-1.24,3,22.06,22.06,0,0,0-1.22,2.91,8.51,8.51,0,0,0-.48,2.81,4.58,4.58,0,0,0,1,2.69l3.22,4.6,5.05-2.81Z" style="fill: rgb(235, 235, 235); transform-origin: 456.132px 130.423px;" class="animable"></path><path id="freepik--question-mark--inject-77" d="M417.29,163.24a1.17,1.17,0,0,0-.71.09l-1,.33a7.9,7.9,0,0,1-1.41.24,6.39,6.39,0,0,1-1.9-.19,4.59,4.59,0,0,1-1.34-.54,3.24,3.24,0,0,1-1-.86,3,3,0,0,1-.5-1.1,2.87,2.87,0,0,1,0-1.3,3.77,3.77,0,0,1,.88-1.75A6.52,6.52,0,0,1,411.8,157a12.63,12.63,0,0,1,1.7-.81,14.7,14.7,0,0,0,1.64-.77,4.7,4.7,0,0,0,1.29-1,2.69,2.69,0,0,0,.63-1.52l.39-3.2-3.24-.75-1.09,2.69a2,2,0,0,1-.84,1,11.84,11.84,0,0,1-1.39.73l-1.68.75a8.17,8.17,0,0,0-1.7,1,7.23,7.23,0,0,0-1.49,1.61,7,7,0,0,0-1,2.42,6.81,6.81,0,0,0-.09,2.83,6,6,0,0,0,1,2.41,7.1,7.1,0,0,0,2.05,1.86,9.76,9.76,0,0,0,2.93,1.17,11.73,11.73,0,0,0,2.34.3,10.14,10.14,0,0,0,2.09-.15,9.74,9.74,0,0,0,1.89-.51,14.44,14.44,0,0,0,1.68-.76l-.79-2.27A1,1,0,0,0,417.29,163.24Zm2.82-19.46a3.16,3.16,0,0,0-.39-1.05,2.89,2.89,0,0,0-.79-.81,3.19,3.19,0,0,0-2.29-.54,3.21,3.21,0,0,0-1.06.39,3,3,0,0,0-.83.77,3,3,0,0,0-.12,3.34,3.07,3.07,0,0,0,.78.83,2.92,2.92,0,0,0,1.09.49,2.87,2.87,0,0,0,1.2,0,3.07,3.07,0,0,0,1.06-.4,2.89,2.89,0,0,0,.82-.78,3.09,3.09,0,0,0,.48-1.08A3.05,3.05,0,0,0,420.11,143.78Z" style="fill: rgb(235, 235, 235); transform-origin: 412.483px 154.536px;" class="animable"></path><path id="freepik--question-mark--inject-77" d="M366.35,112.38a3.26,3.26,0,0,0-.85-.89,3,3,0,0,0-1.18-.54,3.22,3.22,0,0,0-1.31,0,3.32,3.32,0,0,0-1.15.44,3.09,3.09,0,0,0-.88.85,3.38,3.38,0,0,0-.52,1.18,3.13,3.13,0,0,0,0,1.29,3,3,0,0,0,1.28,2,3.26,3.26,0,0,0,1.2.53,3.31,3.31,0,0,0,1.29,0,3.26,3.26,0,0,0,1.15-.43,3.19,3.19,0,0,0,1.43-2,3.12,3.12,0,0,0,0-1.29A3.22,3.22,0,0,0,366.35,112.38ZM376.8,94.84a6.49,6.49,0,0,0-1.14-2.62,7.74,7.74,0,0,0-2.23-2A10.47,10.47,0,0,0,370.24,89a12.26,12.26,0,0,0-2.54-.32,12,12,0,0,0-2.27.17,11.15,11.15,0,0,0-2,.57,15.39,15.39,0,0,0-1.83.84l.87,2.45a1.16,1.16,0,0,0,.94.87,1.38,1.38,0,0,0,.77-.1c.31-.11.67-.23,1.1-.36a7.53,7.53,0,0,1,1.53-.27,6.83,6.83,0,0,1,2.07.19,5.12,5.12,0,0,1,1.46.58,3.49,3.49,0,0,1,1.05.92,3.13,3.13,0,0,1,.55,1.2,3.21,3.21,0,0,1,0,1.41,4,4,0,0,1-.95,1.9,6.51,6.51,0,0,1-1.56,1.24,12.64,12.64,0,0,1-1.85.9,15.47,15.47,0,0,0-1.78.85,5.08,5.08,0,0,0-1.39,1.11,2.87,2.87,0,0,0-.67,1.65l-.41,3.48,3.52.8,1.17-2.94a2.17,2.17,0,0,1,.9-1,12.38,12.38,0,0,1,1.51-.8l1.82-.83A9.18,9.18,0,0,0,374,102.3a8.22,8.22,0,0,0,1.6-1.75,7.77,7.77,0,0,0,1.08-2.64A7.44,7.44,0,0,0,376.8,94.84Z" style="fill: rgb(235, 235, 235); transform-origin: 368.649px 102.99px;" class="animable"></path><path id="freepik--question-mark--inject-77" d="M139.73,165.91a1.3,1.3,0,0,0-.77.1c-.3.11-.67.23-1.1.36a7.53,7.53,0,0,1-1.53.27,6.87,6.87,0,0,1-2.07-.2,4.83,4.83,0,0,1-1.46-.57,3.66,3.66,0,0,1-1.05-.93,3.13,3.13,0,0,1-.55-1.2,3,3,0,0,1,0-1.4,4,4,0,0,1,.94-1.9,6.75,6.75,0,0,1,1.56-1.25,15.06,15.06,0,0,1,1.85-.9,13.33,13.33,0,0,0,1.78-.84,5.48,5.48,0,0,0,1.39-1.11,2.8,2.8,0,0,0,.67-1.66l.42-3.47-3.53-.8-1.16,2.93a2.26,2.26,0,0,1-.91,1.06,14,14,0,0,1-1.51.8l-1.82.82a8.74,8.74,0,0,0-1.84,1.14,7.75,7.75,0,0,0-1.6,1.75,7.6,7.6,0,0,0-1.08,2.64,7.28,7.28,0,0,0-.09,3.07,6.65,6.65,0,0,0,1.14,2.61,7.75,7.75,0,0,0,2.23,2,10.73,10.73,0,0,0,3.19,1.25,13.07,13.07,0,0,0,2.54.32,11.8,11.8,0,0,0,2.27-.18,12.11,12.11,0,0,0,2.05-.56,16,16,0,0,0,1.82-.84l-.87-2.45A1.16,1.16,0,0,0,139.73,165.91Zm3-21.14a3.22,3.22,0,0,0-.44-1.14,3.09,3.09,0,0,0-.85-.88,3.25,3.25,0,0,0-1.2-.52,3.13,3.13,0,0,0-1.29,0,3.19,3.19,0,0,0-2,1.26,3.22,3.22,0,0,0-.53,1.19,3.07,3.07,0,0,0,0,1.28,3.27,3.27,0,0,0,.45,1.16,3.42,3.42,0,0,0,.85.89,3.28,3.28,0,0,0,2.49.56,3.12,3.12,0,0,0,2-1.29,3.24,3.24,0,0,0,.51-1.17A3.37,3.37,0,0,0,142.69,144.77Z" style="fill: rgb(235, 235, 235); transform-origin: 134.461px 156.482px;" class="animable"></path><path id="freepik--question-mark--inject-77" d="M448,81.17a3.16,3.16,0,0,0-.85-.9,3,3,0,0,0-1.18-.54,3.36,3.36,0,0,0-1.3,0,3.25,3.25,0,0,0-1.16.44,3,3,0,0,0-.88.84,3.4,3.4,0,0,0-.53,1.18,3.16,3.16,0,0,0,.38,2.43,3.12,3.12,0,0,0,.85.89,3.47,3.47,0,0,0,1.19.53,3.18,3.18,0,0,0,1.3,0,3.31,3.31,0,0,0,1.15-.42,3.09,3.09,0,0,0,.9-.83,3,3,0,0,0,.54-1.18,3.12,3.12,0,0,0,0-1.29A3,3,0,0,0,448,81.17Zm10.53-17.49a6.46,6.46,0,0,0-1.12-2.62,7.74,7.74,0,0,0-2.22-2A10.74,10.74,0,0,0,452,57.78a12.25,12.25,0,0,0-2.53-.34,11.82,11.82,0,0,0-2.27.17,11.23,11.23,0,0,0-2.05.55,15.36,15.36,0,0,0-1.83.83l.86,2.46a1.14,1.14,0,0,0,.94.87,1.33,1.33,0,0,0,.76-.09c.31-.12.68-.23,1.11-.36a7.58,7.58,0,0,1,1.53-.26,6.87,6.87,0,0,1,2.07.2,5.06,5.06,0,0,1,1.45.58,3.54,3.54,0,0,1,1.05.94,3.11,3.11,0,0,1,.54,1.2,3,3,0,0,1,0,1.4,4.11,4.11,0,0,1-.95,1.9,6.77,6.77,0,0,1-1.57,1.24,13.63,13.63,0,0,1-1.85.88,16.56,16.56,0,0,0-1.79.84,5.45,5.45,0,0,0-1.39,1.1,2.81,2.81,0,0,0-.68,1.66L444.92,77l3.52.82,1.19-2.93a2.14,2.14,0,0,1,.91-1,11.7,11.7,0,0,1,1.51-.79l1.82-.82a8.51,8.51,0,0,0,1.85-1.13,7.72,7.72,0,0,0,1.61-1.74,7.64,7.64,0,0,0,1.1-2.63A7.28,7.28,0,0,0,458.52,63.68Z" style="fill: rgb(235, 235, 235); transform-origin: 450.326px 71.7722px;" class="animable"></path><path id="freepik--question-mark--inject-77" d="M85.07,169.05a11.4,11.4,0,0,0-2.61-3.65,15.9,15.9,0,0,0-4.26-2.87,18.62,18.62,0,0,0-3.6-1.29,17.09,17.09,0,0,0-3.38-.48,17.45,17.45,0,0,0-3.17.16,21.81,21.81,0,0,0-2.94.63l.48,3.87A1.74,1.74,0,0,0,66.68,167a2,2,0,0,0,1.16.1c.48-.06,1-.12,1.72-.17a12,12,0,0,1,2.33.1,10.42,10.42,0,0,1,3,1,7.57,7.57,0,0,1,2,1.31A5.5,5.5,0,0,1,78,171a4.63,4.63,0,0,1-.08,4,6.07,6.07,0,0,1-2,2.47,10.17,10.17,0,0,1-2.69,1.31,20.32,20.32,0,0,1-3,.71,22.61,22.61,0,0,0-2.88.66A8.32,8.32,0,0,0,65,181.3a4.22,4.22,0,0,0-1.52,2.21l-1.74,4.94,4.89,2.31,2.66-3.91A3.32,3.32,0,0,1,71,185.61a18.37,18.37,0,0,1,2.46-.68l2.93-.62a13.48,13.48,0,0,0,3.07-1.06,11.84,11.84,0,0,0,2.91-2,11.33,11.33,0,0,0,2.43-3.51,11.08,11.08,0,0,0,1.12-4.46A9.8,9.8,0,0,0,85.07,169.05ZM64,193.91a4.68,4.68,0,0,0-1.56-1.16,4.75,4.75,0,0,0-1.9-.47,4.61,4.61,0,0,0-3.39,1.23A4.76,4.76,0,0,0,56,195.06a4.88,4.88,0,0,0-.48,1.87,4.73,4.73,0,0,0,.26,1.81,4.53,4.53,0,0,0,1,1.57,5.11,5.11,0,0,0,1.58,1.15,4.93,4.93,0,0,0,1.88.48,4.84,4.84,0,0,0,1.82-.26,4.61,4.61,0,0,0,1.59-.93,4.89,4.89,0,0,0,1.16-1.55,5,5,0,0,0,.46-1.88,4.85,4.85,0,0,0-.29-1.83A5,5,0,0,0,64,193.91Z" style="fill: rgb(235, 235, 235); transform-origin: 70.7182px 181.346px;" class="animable"></path><path id="freepik--question-mark--inject-77" d="M150.53,45.72a12.33,12.33,0,0,0-3-3.73,16.9,16.9,0,0,0-4.73-2.77,20,20,0,0,0-3.93-1.14,18.51,18.51,0,0,0-3.64-.29,17.76,17.76,0,0,0-3.38.38,23.22,23.22,0,0,0-3.09.87l.76,4.1a1.87,1.87,0,0,0,1.27,1.61,2.12,2.12,0,0,0,1.24,0q.76-.15,1.83-.3a12.62,12.62,0,0,1,2.49,0,11.23,11.23,0,0,1,3.23.83,8.18,8.18,0,0,1,2.16,1.26,5.92,5.92,0,0,1,1.43,1.73,4.88,4.88,0,0,1,.57,2,4.93,4.93,0,0,1-.39,2.22,6.43,6.43,0,0,1-2,2.77,10.59,10.59,0,0,1-2.78,1.58,24.23,24.23,0,0,1-3.14,1,22.94,22.94,0,0,0-3,.89,8.6,8.6,0,0,0-2.48,1.41,4.5,4.5,0,0,0-1.47,2.45L126.92,68l5.38,2.14,2.58-4.35a3.51,3.51,0,0,1,1.69-1.45,20,20,0,0,1,2.59-.88l3.08-.85a14.78,14.78,0,0,0,3.21-1.34,12.89,12.89,0,0,0,3-2.37A12.17,12.17,0,0,0,150.78,55a11.73,11.73,0,0,0,.9-4.83A10.51,10.51,0,0,0,150.53,45.72ZM129.65,73.65a5.33,5.33,0,0,0-3.8-1.51,5.17,5.17,0,0,0-1.93.41,5,5,0,0,0-1.61,1.12,5.34,5.34,0,0,0-1.11,1.73,5.28,5.28,0,0,0-.39,2A4.86,4.86,0,0,0,122.34,81a5.37,5.37,0,0,0,1.76,1.13,5.09,5.09,0,0,0,2,.38,5.14,5.14,0,0,0,1.92-.39,5,5,0,0,0,2.77-2.84,5.09,5.09,0,0,0-.06-4A5.4,5.4,0,0,0,129.65,73.65Z" style="fill: rgb(235, 235, 235); transform-origin: 136.247px 60.1485px;" class="animable"></path><path id="freepik--question-mark--inject-77" d="M89.34,117.87a4.33,4.33,0,0,0-1.23-1.22,4.87,4.87,0,0,0-1.59-.66,4.68,4.68,0,0,0-3.51.7,4.61,4.61,0,0,0-1.23,1.22,4.47,4.47,0,0,0-.64,1.59,4.79,4.79,0,0,0,.69,3.48,4.23,4.23,0,0,0,2.79,1.85,4.83,4.83,0,0,0,3.51-.69,4.72,4.72,0,0,0,1.23-1.21,4.37,4.37,0,0,0,.67-1.58,4.46,4.46,0,0,0,0-1.82A4.36,4.36,0,0,0,89.34,117.87Zm3.79-25.64a10.26,10.26,0,0,0-1.64-4,9.14,9.14,0,0,0-2.94-2.7,10.7,10.7,0,0,0-4-1.29,14.81,14.81,0,0,0-4.79.21,17.46,17.46,0,0,0-3.43,1A15.94,15.94,0,0,0,73.52,87a17.06,17.06,0,0,0-2.29,1.89A21.14,21.14,0,0,0,69.37,91l2.51,2.65a1.64,1.64,0,0,0,1.7.57,1.91,1.91,0,0,0,.93-.56c.32-.32.72-.68,1.2-1.09a11,11,0,0,1,1.8-1.22,10.34,10.34,0,0,1,2.76-.93,7.12,7.12,0,0,1,2.19-.1,5.32,5.32,0,0,1,1.88.59,4.31,4.31,0,0,1,2.15,3,5.66,5.66,0,0,1-.12,3,9.64,9.64,0,0,1-1.3,2.48,18.27,18.27,0,0,1-1.85,2.2,20,20,0,0,0-1.79,2.1,7.2,7.2,0,0,0-1.15,2.21,4,4,0,0,0,.08,2.5l1.45,4.68,5-1-.17-4.42a3.06,3.06,0,0,1,.56-1.87A19.2,19.2,0,0,1,88.63,104l1.86-2.09a12.4,12.4,0,0,0,1.71-2.5,11.19,11.19,0,0,0,1.06-3.16A10.69,10.69,0,0,0,93.13,92.23Z" style="fill: rgb(235, 235, 235); transform-origin: 81.3807px 104.524px;" class="animable"></path><path id="freepik--question-mark--inject-77" d="M37,141.24a1.47,1.47,0,0,0-.84.11c-.33.12-.74.25-1.21.39a8.39,8.39,0,0,1-1.68.28A7.36,7.36,0,0,1,31,141.8a5.42,5.42,0,0,1-1.6-.64,4.07,4.07,0,0,1-1.15-1,3.43,3.43,0,0,1-.56-2.87,4.46,4.46,0,0,1,1-2.08,7.32,7.32,0,0,1,1.72-1.36,14.72,14.72,0,0,1,2-1,16.15,16.15,0,0,0,2-.92A5.77,5.77,0,0,0,36,130.72a3.1,3.1,0,0,0,.75-1.82l.47-3.81-3.86-.9-1.3,3.22a2.46,2.46,0,0,1-1,1.15,13.56,13.56,0,0,1-1.67.87l-2,.9a9.53,9.53,0,0,0-2,1.24,8.8,8.8,0,0,0-1.77,1.91,8.1,8.1,0,0,0-1.2,2.9,7.89,7.89,0,0,0-.11,3.37,7,7,0,0,0,1.24,2.88A8.32,8.32,0,0,0,26,144.85a11.9,11.9,0,0,0,3.49,1.39,14.24,14.24,0,0,0,2.79.36,12.64,12.64,0,0,0,2.5-.18,12.4,12.4,0,0,0,2.25-.61,16.78,16.78,0,0,0,2-.91l-.94-2.7A1.3,1.3,0,0,0,37,141.24ZM40.38,118A3.38,3.38,0,0,0,39,115.8a3.7,3.7,0,0,0-1.31-.58,3.6,3.6,0,0,0-1.42,0,3.64,3.64,0,0,0-1.27.46,3.6,3.6,0,0,0-1,.92,3.28,3.28,0,0,0-.59,1.3,3.35,3.35,0,0,0,0,1.41,3.27,3.27,0,0,0,.49,1.27,3.76,3.76,0,0,0,.92,1,3.59,3.59,0,0,0,1.3.59,3.69,3.69,0,0,0,1.44,0,3.42,3.42,0,0,0,1.27-.48,3.29,3.29,0,0,0,1-.93,3.44,3.44,0,0,0,.58-1.29A3.6,3.6,0,0,0,40.38,118Z" style="fill: rgb(235, 235, 235); transform-origin: 31.3251px 130.877px;" class="animable"></path><path id="freepik--question-mark--inject-77" d="M55.33,59.26a1.37,1.37,0,0,0-.77.09c-.3.11-.67.23-1.1.36a7.58,7.58,0,0,1-1.53.26,6.6,6.6,0,0,1-2.07-.21,4.77,4.77,0,0,1-1.45-.57,3.84,3.84,0,0,1-1-.94,3,3,0,0,1-.54-1.2,3.07,3.07,0,0,1,0-1.41,4.08,4.08,0,0,1,.95-1.89,6.77,6.77,0,0,1,1.57-1.24,15,15,0,0,1,1.85-.89A14.85,14.85,0,0,0,53,50.79a5.48,5.48,0,0,0,1.39-1.11A2.81,2.81,0,0,0,55.08,48l.43-3.47L52,43.74l-1.19,2.93a2.14,2.14,0,0,1-.91,1,12.4,12.4,0,0,1-1.51.79l-1.82.82a8.81,8.81,0,0,0-1.86,1.13A8.21,8.21,0,0,0,43.1,52.2,7.83,7.83,0,0,0,42,54.83a7.46,7.46,0,0,0-.1,3.07A6.68,6.68,0,0,0,43,60.52a7.88,7.88,0,0,0,2.22,2,10.79,10.79,0,0,0,3.18,1.26,12.43,12.43,0,0,0,2.54.34A11.82,11.82,0,0,0,53.25,64a12.09,12.09,0,0,0,2-.55,15.36,15.36,0,0,0,1.83-.83l-.86-2.46A1.16,1.16,0,0,0,55.33,59.26Zm3.06-21.12A3.12,3.12,0,0,0,58,37a3.27,3.27,0,0,0-2-1.42,3.37,3.37,0,0,0-1.3,0,3.26,3.26,0,0,0-1.15.43,3.09,3.09,0,0,0-.9.83A3,3,0,0,0,52,38a3.3,3.3,0,0,0,0,1.29,3.22,3.22,0,0,0,.45,1.15,3.26,3.26,0,0,0,2,1.44,3.41,3.41,0,0,0,1.31,0,3.25,3.25,0,0,0,1.16-.44,3,3,0,0,0,.88-.85,3.27,3.27,0,0,0,.53-1.17A3.13,3.13,0,0,0,58.39,38.14Z" style="fill: rgb(235, 235, 235); transform-origin: 50.108px 49.8246px;" class="animable"></path></g></g><g id="freepik--sign-2--inject-77" class="animable" style="transform-origin: 403.417px 293.79px;"><g id="freepik--Sign--inject-77" class="animable" style="transform-origin: 403.417px 293.79px;"><polygon points="405.23 222.4 410.22 219.52 410.22 371.22 405.23 374.1 405.23 222.4" style="fill: rgb(55, 71, 79); transform-origin: 407.725px 296.81px;" id="elfkq1s7ziqto" class="animable"></polygon><polygon points="397.75 369.77 405.23 374.1 405.23 222.4 403.42 221.35 402.81 227.61 402.19 220.64 397.75 218.08 397.75 369.77" style="fill: rgb(69, 90, 100); transform-origin: 401.49px 296.09px;" id="elm1aups9kez" class="animable"></polygon><polygon points="410.22 261.12 410.22 265.86 405.23 268.75 405.23 264 410.22 261.12" style="fill: rgb(38, 50, 56); transform-origin: 407.725px 264.935px;" id="elvl0z8mnky4m" class="animable"></polygon><polygon points="397.74 259.68 397.74 264.42 405.23 268.75 405.23 264 397.74 259.68" style="fill: rgb(55, 71, 79); transform-origin: 401.485px 264.215px;" id="el3ia29jndy4x" class="animable"></polygon><polygon points="403.42 221.35 402.19 220.64 402.81 227.61 403.42 221.35" style="fill: rgb(38, 50, 56); transform-origin: 402.805px 224.125px;" id="elexodg9zr6o7" class="animable"></polygon><polygon points="410.22 219.52 402.73 215.2 397.75 218.08 405.23 222.4 410.22 219.52" style="fill: rgb(38, 50, 56); transform-origin: 403.985px 218.8px;" id="elpaofwzd8mb" class="animable"></polygon><g id="el9c59h4zxdbc"><g style="opacity: 0.15; transform-origin: 407.725px 306.535px;" class="animable"><polygon points="410.22 301.6 405.23 304.48 405.23 311.47 410.22 308.59 410.22 301.6" id="elblcbda3c1is" class="animable" style="transform-origin: 407.725px 306.535px;"></polygon></g></g><g id="el5p0rxh568u"><g style="opacity: 0.15; transform-origin: 401.49px 305.815px;" class="animable"><polygon points="405.23 304.48 397.75 300.16 397.75 307.15 405.23 311.47 405.23 304.48" id="eli5bzzplmg2q" class="animable" style="transform-origin: 401.49px 305.815px;"></polygon></g></g><polygon points="367.21 242.66 434.21 281.3 434.21 255.25 376.37 221.89 375.47 228.15 374.93 221.06 367.21 216.6 355.93 223.12 367.21 242.66" style="fill: rgb(69, 90, 100); transform-origin: 395.07px 248.95px;" id="el55gz0pj5g2a" class="animable"></polygon><polygon points="376.37 221.89 375.65 221.48 374.93 221.06 375.47 228.15 376.37 221.89" style="fill: rgb(38, 50, 56); transform-origin: 375.65px 224.605px;" id="ela4zn3o8hu0a" class="animable"></polygon><g id="elcgo7oewt7xk"><polygon points="376.37 221.89 433.28 255.94 434.21 281.3 434.21 255.25 376.37 221.89" style="fill: rgb(255, 255, 255); opacity: 0.2; transform-origin: 405.29px 251.595px;" class="animable"></polygon></g><polygon points="434.21 259.95 429.17 258.46 434.21 262.57 434.21 259.95" style="fill: rgb(55, 71, 79); transform-origin: 431.69px 260.515px;" id="elnry8wvrufnb" class="animable"></polygon><polygon points="439.56 278.19 434.21 281.3 434.21 255.25 439.56 252.07 439.56 278.19" style="fill: rgb(55, 71, 79); transform-origin: 436.885px 266.685px;" id="elqarydzilak" class="animable"></polygon><polygon points="434.21 255.25 439.56 252.07 372.64 213.48 367.21 216.6 434.21 255.25" style="fill: rgb(38, 50, 56); transform-origin: 403.385px 234.365px;" id="elx7f068kshp" class="animable"></polygon><polygon points="434.21 259.95 435.63 260.46 434.21 262.57 434.21 259.95" style="fill: rgb(55, 71, 79); transform-origin: 434.92px 261.26px;" id="elh1w36fjbemj" class="animable"></polygon><polygon points="435.63 260.46 434.21 261.29 429.17 258.46 434.21 262.57 435.63 260.46" style="fill: rgb(38, 50, 56); transform-origin: 432.4px 260.515px;" id="el2tc98edp9qu" class="animable"></polygon><polygon points="374.93 221.06 375.65 221.48 375.47 228.15 374.93 221.06" style="fill: rgb(55, 71, 79); transform-origin: 375.29px 224.605px;" id="elxuspo9ndzx" class="animable"></polygon><polygon points="445.58 317.63 434.29 298.08 367.18 259.39 367.18 285.45 374.91 289.91 375.44 283.44 376.34 290.74 434.29 324.14 434.29 324.14 445.58 317.63" style="fill: rgb(69, 90, 100); transform-origin: 406.38px 291.765px;" id="eltoh7o29w2h" class="animable"></polygon><polygon points="376.34 290.74 375.38 288.52 374.91 289.91 375.44 283.44 376.34 290.74" style="fill: rgb(38, 50, 56); transform-origin: 375.625px 287.09px;" id="elrf023r3zd5" class="animable"></polygon><g id="elp5byody56mo"><polygon points="376.34 264.68 433.37 298.78 445.58 317.63 434.29 298.08 376.34 264.68" style="fill: rgb(255, 255, 255); opacity: 0.2; transform-origin: 410.96px 291.155px;" class="animable"></polygon></g><g id="elqgzc5r0haw"><rect x="439.52" y="295.03" width="6.17" height="22.56" style="fill: rgb(55, 71, 79); transform-origin: 442.605px 306.31px; transform: rotate(-29.91deg);" class="animable"></rect></g><polygon points="439.83 307.68 436.79 310.57 440.67 309.12 444.38 307.05 439.83 307.68" style="fill: rgb(38, 50, 56); transform-origin: 440.585px 308.81px;" id="elparon7fs4b" class="animable"></polygon><polygon points="436.79 310.57 440.23 308.49 444.38 307.05 440.67 309.12 436.79 310.57" style="fill: rgb(55, 71, 79); transform-origin: 440.585px 308.81px;" id="elbm8a6y8flav" class="animable"></polygon><polyline points="434.29 298.08 439.64 295 372.52 256.31 367.18 259.39" style="fill: rgb(38, 50, 56); transform-origin: 403.41px 277.195px;" id="elqnrq8dbssl" class="animable"></polyline><polygon points="374.91 289.91 375.38 288.52 375.44 283.44 374.91 289.91" style="fill: rgb(55, 71, 79); transform-origin: 375.175px 286.675px;" id="eln9etxdde0u" class="animable"></polygon><path d="M386.76,234.7a3.09,3.09,0,0,1,.68-.26,3.36,3.36,0,0,1,.79-.08,3.53,3.53,0,0,1,.91.17,5,5,0,0,1,1.05.48,6.44,6.44,0,0,1,1.44,1.11,7.16,7.16,0,0,1,1.08,1.43,6.93,6.93,0,0,1,.69,1.66,6.7,6.7,0,0,1,.24,1.78,4.35,4.35,0,0,1-.18,1.38,2.32,2.32,0,0,1-.44.83,1.82,1.82,0,0,1-.6.45l-.62.27a2.17,2.17,0,0,0-.5.28.69.69,0,0,0-.28.47l-.24,1.44-1.79-1-.18-1.92a1.72,1.72,0,0,1,.08-.92,1.15,1.15,0,0,1,.42-.5,2.38,2.38,0,0,1,.6-.29,3.37,3.37,0,0,0,.61-.28,1.64,1.64,0,0,0,.49-.49,1.68,1.68,0,0,0,.2-.89,2.44,2.44,0,0,0-.34-1.27,2.33,2.33,0,0,0-.91-.93,2.16,2.16,0,0,0-.75-.31,1.56,1.56,0,0,0-.52,0,2.86,2.86,0,0,0-.37.06.45.45,0,0,1-.33-.07,1.28,1.28,0,0,1-.54-.72Zm1.56,14.06a1.78,1.78,0,0,1,.11-.69,1,1,0,0,1,.31-.43.77.77,0,0,1,.47-.14,1.13,1.13,0,0,1,.59.19,2.23,2.23,0,0,1,.59.49,3.29,3.29,0,0,1,.47.68,3.85,3.85,0,0,1,.32.79,3.38,3.38,0,0,1,.11.83,2,2,0,0,1-.11.69.91.91,0,0,1-.32.43.69.69,0,0,1-.47.13,1.23,1.23,0,0,1-.59-.19,2.39,2.39,0,0,1-.59-.48,4.1,4.1,0,0,1-.47-.68,4.28,4.28,0,0,1-.31-.8A2.94,2.94,0,0,1,388.32,248.76Z" style="fill: rgb(250, 250, 250); transform-origin: 390.201px 243.046px;" id="eldu04fw96u4g" class="animable"></path><path d="M394.73,239.31a2.66,2.66,0,0,1,.68-.26,2.56,2.56,0,0,1,.79-.08,3.42,3.42,0,0,1,.91.16,4.81,4.81,0,0,1,1.05.48,6.22,6.22,0,0,1,1.44,1.11,6.81,6.81,0,0,1,1.08,1.43,7.1,7.1,0,0,1,.69,1.66,6.75,6.75,0,0,1,.24,1.78,4.39,4.39,0,0,1-.17,1.38,2.4,2.4,0,0,1-.45.83,1.86,1.86,0,0,1-.6.46c-.21.1-.42.19-.61.26a2.43,2.43,0,0,0-.51.28.71.71,0,0,0-.28.47l-.23,1.45-1.8-1-.18-1.92a1.72,1.72,0,0,1,.08-.92,1.21,1.21,0,0,1,.42-.5,2.78,2.78,0,0,1,.6-.29,2.6,2.6,0,0,0,.61-.28,1.44,1.44,0,0,0,.49-.49,1.65,1.65,0,0,0,.2-.89,2.56,2.56,0,0,0-.33-1.27,2.42,2.42,0,0,0-.92-.93,2.38,2.38,0,0,0-.75-.31,1.88,1.88,0,0,0-.52,0l-.37.06a.45.45,0,0,1-.32-.06,1.23,1.23,0,0,1-.54-.73Zm1.56,14.05a2,2,0,0,1,.11-.69,1,1,0,0,1,.32-.43.78.78,0,0,1,.46-.14,1.3,1.3,0,0,1,.6.19,2.36,2.36,0,0,1,.58.49,3.58,3.58,0,0,1,.47.68,3.93,3.93,0,0,1,.32.8,2.89,2.89,0,0,1,.11.82,1.78,1.78,0,0,1-.11.69.91.91,0,0,1-.32.43.75.75,0,0,1-.47.14,1.28,1.28,0,0,1-.58-.19,2.53,2.53,0,0,1-.6-.49,3.25,3.25,0,0,1-.46-.68,3.63,3.63,0,0,1-.32-.79A3.44,3.44,0,0,1,396.29,253.36Z" style="fill: rgb(250, 250, 250); transform-origin: 398.171px 247.653px;" id="elbh43z82k1ij" class="animable"></path><path d="M402.7,243.91a3.09,3.09,0,0,1,.68-.26,2.94,2.94,0,0,1,.8-.08,3.42,3.42,0,0,1,.9.16,5.09,5.09,0,0,1,1.06.48,7,7,0,0,1,1.43,1.11,6.85,6.85,0,0,1,1.09,1.43,8.31,8.31,0,0,1,.69,1.66,6.75,6.75,0,0,1,.24,1.78,4.31,4.31,0,0,1-.18,1.38,2.4,2.4,0,0,1-.45.83,1.73,1.73,0,0,1-.6.46l-.61.27a2.43,2.43,0,0,0-.51.27.72.72,0,0,0-.27.48l-.24,1.44-1.79-1-.19-1.92a1.68,1.68,0,0,1,.08-.91,1.34,1.34,0,0,1,.42-.51,2.36,2.36,0,0,1,.6-.28,3.5,3.5,0,0,0,.62-.29,1.5,1.5,0,0,0,.48-.49,1.65,1.65,0,0,0,.2-.89,2.52,2.52,0,0,0-1.25-2.2,2.65,2.65,0,0,0-.75-.31,1.82,1.82,0,0,0-.51,0l-.38.06a.46.46,0,0,1-.32-.06,1.28,1.28,0,0,1-.54-.73Zm1.56,14a2,2,0,0,1,.11-.69,1,1,0,0,1,.32-.43.82.82,0,0,1,.47-.14,1.39,1.39,0,0,1,.59.19,2.4,2.4,0,0,1,.58.49,3.65,3.65,0,0,1,.47.69,3.19,3.19,0,0,1,.32.79,3,3,0,0,1,.12.82,1.78,1.78,0,0,1-.12.69.87.87,0,0,1-.32.44.81.81,0,0,1-.47.13,1.31,1.31,0,0,1-.58-.19,2.48,2.48,0,0,1-.59-.49,3.29,3.29,0,0,1-.47-.68,3.63,3.63,0,0,1-.32-.79A3.44,3.44,0,0,1,404.26,258Z" style="fill: rgb(250, 250, 250); transform-origin: 406.146px 252.229px;" id="el0qwt6h0xudu" class="animable"></path><path d="M410.68,248.51a2.91,2.91,0,0,1,.68-.26,2.86,2.86,0,0,1,.79-.08,3.21,3.21,0,0,1,.91.17,5.8,5.8,0,0,1,1.05.47,6.76,6.76,0,0,1,1.43,1.11,7.11,7.11,0,0,1,1.78,3.1,6.7,6.7,0,0,1,.24,1.78,4.35,4.35,0,0,1-.18,1.38,2.5,2.5,0,0,1-.45.83,1.89,1.89,0,0,1-.59.45l-.62.27a2.48,2.48,0,0,0-.51.28.72.72,0,0,0-.27.47l-.24,1.44-1.79-1-.19-1.93a1.77,1.77,0,0,1,.09-.91,1.15,1.15,0,0,1,.42-.5,2.16,2.16,0,0,1,.59-.29,2.7,2.7,0,0,0,.62-.29,1.39,1.39,0,0,0,.68-1.38,2.59,2.59,0,0,0-.33-1.27,2.49,2.49,0,0,0-.92-.93,2.32,2.32,0,0,0-.75-.3,1.87,1.87,0,0,0-.51,0l-.38.06a.46.46,0,0,1-.32-.06,1.28,1.28,0,0,1-.54-.73Zm1.55,14.05a1.78,1.78,0,0,1,.12-.69.91.91,0,0,1,.31-.42.69.69,0,0,1,.47-.14,1.13,1.13,0,0,1,.59.19,2.35,2.35,0,0,1,.58.48,4.24,4.24,0,0,1,.48.69,3.61,3.61,0,0,1,.31.79,3,3,0,0,1,.12.82,1.83,1.83,0,0,1-.12.7.94.94,0,0,1-.31.43.79.79,0,0,1-.48.13,1.31,1.31,0,0,1-.58-.19,2.23,2.23,0,0,1-.59-.49,3.22,3.22,0,0,1-.47-.67,3.69,3.69,0,0,1-.31-.8A3,3,0,0,1,412.23,262.56Z" style="fill: rgb(250, 250, 250); transform-origin: 414.121px 256.855px;" id="elnpiq7ml7sbg" class="animable"></path><path d="M417.62,308.51a3.09,3.09,0,0,1-.68.26,2.9,2.9,0,0,1-.79.08,3.09,3.09,0,0,1-.91-.17,5.25,5.25,0,0,1-1.05-.47,7.09,7.09,0,0,1-1.44-1.11,6.87,6.87,0,0,1-1.08-1.44A7,7,0,0,1,411,304a6.75,6.75,0,0,1-.24-1.78,4.42,4.42,0,0,1,.17-1.39,2.44,2.44,0,0,1,.45-.82,1.73,1.73,0,0,1,.6-.46l.62-.27a2.17,2.17,0,0,0,.5-.28.69.69,0,0,0,.28-.47l.23-1.44,1.8,1,.18,1.92a1.68,1.68,0,0,1-.08.91,1.15,1.15,0,0,1-.42.5,2.38,2.38,0,0,1-.6.29,2.63,2.63,0,0,0-.61.29,1.5,1.5,0,0,0-.49.48,1.71,1.71,0,0,0-.2.9,2.52,2.52,0,0,0,1.25,2.2,2.32,2.32,0,0,0,.75.3,1.92,1.92,0,0,0,.52,0l.37-.06a.45.45,0,0,1,.32.06,1.2,1.2,0,0,1,.54.73Zm-1.56-14.05a2,2,0,0,1-.11.69,1,1,0,0,1-.31.42.71.71,0,0,1-.47.14,1.21,1.21,0,0,1-.59-.18A2.44,2.44,0,0,1,414,295a4,4,0,0,1-.79-1.48,2.94,2.94,0,0,1-.11-.82,1.84,1.84,0,0,1,.11-.7,1,1,0,0,1,.32-.43.74.74,0,0,1,.47-.13,1.35,1.35,0,0,1,.59.19,2.44,2.44,0,0,1,.59.49,3.72,3.72,0,0,1,.47.68,4.19,4.19,0,0,1,.31.79A3.44,3.44,0,0,1,416.06,294.46Z" style="fill: rgb(250, 250, 250); transform-origin: 414.188px 300.145px;" id="elnergwe51vac" class="animable"></path><path d="M409.65,303.91a3.09,3.09,0,0,1-.68.26,3.39,3.39,0,0,1-.8.08,3.46,3.46,0,0,1-.9-.17,5.09,5.09,0,0,1-1.06-.48,6.39,6.39,0,0,1-1.43-1.11,7.21,7.21,0,0,1-1.09-1.43,7.85,7.85,0,0,1-.69-1.66,6.7,6.7,0,0,1-.24-1.78,4.35,4.35,0,0,1,.18-1.38,2.5,2.5,0,0,1,.45-.83,1.82,1.82,0,0,1,.6-.45l.61-.27a2.05,2.05,0,0,0,.51-.28.68.68,0,0,0,.27-.47l.24-1.44,1.79,1,.19,1.92a1.72,1.72,0,0,1-.08.92,1.39,1.39,0,0,1-.42.5,2.38,2.38,0,0,1-.6.29,3.46,3.46,0,0,0-.62.28,1.6,1.6,0,0,0-.48.49,1.68,1.68,0,0,0-.2.89,2.53,2.53,0,0,0,.33,1.27,2.42,2.42,0,0,0,.92.93,2.16,2.16,0,0,0,.75.31,1.51,1.51,0,0,0,.51,0l.38-.05a.38.38,0,0,1,.32.06,1.28,1.28,0,0,1,.54.73Zm-1.56-14.06a2,2,0,0,1-.11.69.91.91,0,0,1-.32.43.75.75,0,0,1-.47.14,1.16,1.16,0,0,1-.59-.19,2.19,2.19,0,0,1-.58-.49,3.29,3.29,0,0,1-.47-.68,3.36,3.36,0,0,1-.32-.79,3,3,0,0,1-.12-.82,1.79,1.79,0,0,1,.12-.7.85.85,0,0,1,.32-.43.69.69,0,0,1,.47-.13,1.2,1.2,0,0,1,.58.19,2.08,2.08,0,0,1,.59.49,3.22,3.22,0,0,1,.47.67,3.71,3.71,0,0,1,.32.8A3.36,3.36,0,0,1,408.09,289.85Z" style="fill: rgb(250, 250, 250); transform-origin: 406.204px 295.564px;" id="elfrbhys14xb" class="animable"></path><path d="M401.67,299.3a2.76,2.76,0,0,1-.68.27,2.84,2.84,0,0,1-.79.07,3.18,3.18,0,0,1-.91-.16,5.27,5.27,0,0,1-1.05-.48,6.17,6.17,0,0,1-1.43-1.11,6.85,6.85,0,0,1-1.09-1.43,7.1,7.1,0,0,1-.69-1.66,6.75,6.75,0,0,1-.24-1.78,4.35,4.35,0,0,1,.18-1.38,2.5,2.5,0,0,1,.45-.83,1.89,1.89,0,0,1,.59-.45c.22-.1.43-.2.62-.27a2.25,2.25,0,0,0,.51-.28.74.74,0,0,0,.27-.47l.24-1.44,1.79,1,.19,1.92a1.71,1.71,0,0,1-.09.92,1.21,1.21,0,0,1-.42.5,2.49,2.49,0,0,1-.59.29,3.17,3.17,0,0,0-.62.28,1.5,1.5,0,0,0-.48.49,1.57,1.57,0,0,0-.2.89,2.56,2.56,0,0,0,.33,1.27,2.35,2.35,0,0,0,.92.93,2.38,2.38,0,0,0,.75.31,1.82,1.82,0,0,0,.51,0l.38-.06a.46.46,0,0,1,.32.06,1.31,1.31,0,0,1,.54.73Zm-1.55-14.05a1.78,1.78,0,0,1-.12.69.94.94,0,0,1-.31.43.75.75,0,0,1-.47.14,1.23,1.23,0,0,1-.59-.19,2.19,2.19,0,0,1-.58-.49,3.76,3.76,0,0,1-.48-.68,3.9,3.9,0,0,1-.31-.8,2.91,2.91,0,0,1-.12-.82,1.78,1.78,0,0,1,.12-.69.89.89,0,0,1,.31-.43.8.8,0,0,1,.48-.14,1.31,1.31,0,0,1,.58.19,2.7,2.7,0,0,1,.59.49,3.29,3.29,0,0,1,.47.68,3.61,3.61,0,0,1,.31.79A3.08,3.08,0,0,1,400.12,285.25Z" style="fill: rgb(250, 250, 250); transform-origin: 398.229px 290.957px;" id="elig1yj7tvvv8" class="animable"></path><path d="M393.7,294.7a2.91,2.91,0,0,1-.68.26,2.86,2.86,0,0,1-.79.08,3.56,3.56,0,0,1-.91-.16,5.27,5.27,0,0,1-1.05-.48,6.76,6.76,0,0,1-1.43-1.11,6.85,6.85,0,0,1-1.09-1.43,7.28,7.28,0,0,1-.69-1.66,6.75,6.75,0,0,1-.24-1.78A4.31,4.31,0,0,1,387,287a2.25,2.25,0,0,1,.45-.83,1.69,1.69,0,0,1,.59-.46l.62-.27a3.05,3.05,0,0,0,.51-.27.77.77,0,0,0,.27-.48l.24-1.44,1.79,1,.19,1.92a1.77,1.77,0,0,1-.09.91,1.18,1.18,0,0,1-.42.51,2.29,2.29,0,0,1-.59.28,3.2,3.2,0,0,0-.62.29,1.63,1.63,0,0,0-.49.49,1.65,1.65,0,0,0-.2.89,2.6,2.6,0,0,0,.34,1.27,2.7,2.7,0,0,0,1.66,1.24,1.89,1.89,0,0,0,.52,0l.38-.06a.47.47,0,0,1,.32.06,1.28,1.28,0,0,1,.54.73Zm-1.55-14.05a1.78,1.78,0,0,1-.12.69.94.94,0,0,1-.31.43.82.82,0,0,1-.47.14,1.35,1.35,0,0,1-.59-.19,2.23,2.23,0,0,1-.58-.49,3.7,3.7,0,0,1-.48-.69,4.21,4.21,0,0,1-.32-.79,3.36,3.36,0,0,1-.11-.82,2.1,2.1,0,0,1,.11-.7,1,1,0,0,1,.32-.43.77.77,0,0,1,.48-.13,1.36,1.36,0,0,1,.58.19,2.44,2.44,0,0,1,.59.49,3.29,3.29,0,0,1,.47.68,3.61,3.61,0,0,1,.31.79A3,3,0,0,1,392.15,280.65Z" style="fill: rgb(250, 250, 250); transform-origin: 390.258px 286.355px;" id="elosexiqu53dk" class="animable"></path></g></g><g id="freepik--sign-1--inject-77" class="animable" style="transform-origin: 95.7356px 293.79px;"><g id="freepik--sign--inject-77" class="animable" style="transform-origin: 95.7356px 293.79px;"><polygon points="93.93 222.4 88.94 219.52 88.94 371.22 93.93 374.1 93.93 222.4" style="fill: rgb(55, 71, 79); transform-origin: 91.435px 296.81px;" id="eljopxwfznmmd" class="animable"></polygon><polygon points="101.41 369.77 93.93 374.1 93.93 222.4 95.74 221.35 96.35 227.61 96.97 220.64 101.41 218.08 101.41 369.77" style="fill: rgb(69, 90, 100); transform-origin: 97.67px 296.09px;" id="elwp5rgbj263m" class="animable"></polygon><polygon points="88.94 261.12 88.94 265.86 93.93 268.75 93.93 264 88.94 261.12" style="fill: rgb(38, 50, 56); transform-origin: 91.435px 264.935px;" id="eleu6uuljw4y" class="animable"></polygon><polygon points="101.42 259.68 101.42 264.42 93.93 268.75 93.93 264 101.42 259.68" style="fill: rgb(55, 71, 79); transform-origin: 97.675px 264.215px;" id="el8v0qo46leqm" class="animable"></polygon><polygon points="95.74 221.35 96.97 220.64 96.35 227.61 95.74 221.35" style="fill: rgb(38, 50, 56); transform-origin: 96.355px 224.125px;" id="el76cepiypcrq" class="animable"></polygon><polygon points="88.94 219.52 96.42 215.2 101.41 218.08 93.93 222.4 88.94 219.52" style="fill: rgb(38, 50, 56); transform-origin: 95.175px 218.8px;" id="elw9u8h5uz5e" class="animable"></polygon><g id="elubql85wd1t"><g style="opacity: 0.15; transform-origin: 91.435px 306.535px;" class="animable"><polygon points="88.94 301.6 93.93 304.48 93.93 311.47 88.94 308.59 88.94 301.6" id="elo2ujm7ycquq" class="animable" style="transform-origin: 91.435px 306.535px;"></polygon></g></g><g id="els0wuavzqmrc"><g style="opacity: 0.15; transform-origin: 97.67px 305.815px;" class="animable"><polygon points="93.93 304.48 101.41 300.16 101.41 307.15 93.93 311.47 93.93 304.48" id="el12yrfvz2abo" class="animable" style="transform-origin: 97.67px 305.815px;"></polygon></g></g><polygon points="131.95 242.66 64.95 281.3 64.95 255.25 122.79 221.89 123.69 228.15 124.22 221.06 131.95 216.6 143.23 223.12 131.95 242.66" style="fill: rgb(69, 90, 100); transform-origin: 104.09px 248.95px;" id="elb2srnanpsga" class="animable"></polygon><polygon points="122.79 221.89 123.5 221.48 124.22 221.06 123.69 228.15 122.79 221.89" style="fill: rgb(38, 50, 56); transform-origin: 123.505px 224.605px;" id="elfnpmmg2w4cd" class="animable"></polygon><g id="el75ola05kmhp"><polygon points="122.79 221.89 65.88 255.94 64.95 281.3 64.95 255.25 122.79 221.89" style="fill: rgb(255, 255, 255); opacity: 0.2; transform-origin: 93.87px 251.595px;" class="animable"></polygon></g><polygon points="64.95 259.95 69.99 258.46 64.95 262.57 64.95 259.95" style="fill: rgb(55, 71, 79); transform-origin: 67.47px 260.515px;" id="ellmfq0li3w4j" class="animable"></polygon><polygon points="59.6 278.19 64.95 281.3 64.95 255.25 59.6 252.07 59.6 278.19" style="fill: rgb(55, 71, 79); transform-origin: 62.275px 266.685px;" id="el53oz0sxzli" class="animable"></polygon><polygon points="64.95 255.25 59.6 252.07 126.52 213.48 131.95 216.6 64.95 255.25" style="fill: rgb(38, 50, 56); transform-origin: 95.775px 234.365px;" id="elu7tol5y5obg" class="animable"></polygon><polygon points="64.95 259.95 63.52 260.46 64.95 262.57 64.95 259.95" style="fill: rgb(55, 71, 79); transform-origin: 64.235px 261.26px;" id="eld8jjplq9e5o" class="animable"></polygon><polygon points="63.52 260.46 64.95 261.29 69.99 258.46 64.95 262.57 63.52 260.46" style="fill: rgb(38, 50, 56); transform-origin: 66.755px 260.515px;" id="elqurqebvnwl" class="animable"></polygon><polygon points="124.22 221.06 123.5 221.48 123.69 228.15 124.22 221.06" style="fill: rgb(55, 71, 79); transform-origin: 123.86px 224.605px;" id="ell95hje6y77l" class="animable"></polygon><polygon points="53.58 317.63 64.86 298.08 131.97 259.39 131.97 285.45 124.25 289.91 123.71 283.44 122.81 290.74 64.86 324.14 64.86 324.14 53.58 317.63" style="fill: rgb(69, 90, 100); transform-origin: 92.775px 291.765px;" id="ell4yfv0qvl5g" class="animable"></polygon><polygon points="122.81 290.74 123.78 288.52 124.25 289.91 123.71 283.44 122.81 290.74" style="fill: rgb(38, 50, 56); transform-origin: 123.53px 287.09px;" id="elgk3qu06h9xg" class="animable"></polygon><g id="ele608sp1y5w6"><polygon points="122.81 264.68 65.79 298.78 53.58 317.63 64.86 298.08 122.81 264.68" style="fill: rgb(255, 255, 255); opacity: 0.2; transform-origin: 88.195px 291.155px;" class="animable"></polygon></g><g id="elkqogqt4jiqh"><rect x="45.26" y="303.23" width="22.56" height="6.17" style="fill: rgb(55, 71, 79); transform-origin: 56.54px 306.315px; transform: rotate(-60.09deg);" class="animable"></rect></g><polygon points="59.32 307.68 62.36 310.57 58.49 309.12 54.77 307.05 59.32 307.68" style="fill: rgb(38, 50, 56); transform-origin: 58.565px 308.81px;" id="el69a9odkmewh" class="animable"></polygon><polygon points="62.36 310.57 58.92 308.49 54.77 307.05 58.49 309.12 62.36 310.57" style="fill: rgb(55, 71, 79); transform-origin: 58.565px 308.81px;" id="elx5vv79baz" class="animable"></polygon><polyline points="64.86 298.08 59.51 295 126.64 256.31 131.97 259.39" style="fill: rgb(38, 50, 56); transform-origin: 95.74px 277.195px;" id="elrnkvvco0e7d" class="animable"></polyline><polygon points="124.25 289.91 123.78 288.52 123.71 283.44 124.25 289.91" style="fill: rgb(55, 71, 79); transform-origin: 123.98px 286.675px;" id="elhw6dh33cii" class="animable"></polygon><path d="M83,251.29a11.74,11.74,0,0,1,.68-1c.25-.34.51-.67.79-1a9.56,9.56,0,0,1,.91-.89,7,7,0,0,1,1-.73,4,4,0,0,1,1.44-.55,1.6,1.6,0,0,1,1.08.18,1.68,1.68,0,0,1,.69.86,4.06,4.06,0,0,1,.24,1.5,6.61,6.61,0,0,1-.18,1.59,7.91,7.91,0,0,1-.44,1.35,8.74,8.74,0,0,1-.6,1.14c-.22.35-.42.68-.62,1s-.36.59-.5.86a2.51,2.51,0,0,0-.28.79L87,258.05l-1.79,1-.18-1.7a2.35,2.35,0,0,1,.08-1,4.9,4.9,0,0,1,.42-1c.18-.33.37-.65.59-1s.43-.66.62-1a7.54,7.54,0,0,0,.49-1,3.32,3.32,0,0,0,.2-1.13c0-.45-.11-.74-.34-.88s-.53-.1-.92.13a4.07,4.07,0,0,0-.74.55,6.62,6.62,0,0,0-.52.58l-.37.49a1,1,0,0,1-.33.31c-.24.14-.42.11-.54-.1Zm1.56,12.25a2.94,2.94,0,0,1,.11-.82,4.19,4.19,0,0,1,.31-.79,3.58,3.58,0,0,1,.47-.68,2.23,2.23,0,0,1,.59-.49,1.23,1.23,0,0,1,.59-.19.77.77,0,0,1,.47.14.91.91,0,0,1,.32.43,1.9,1.9,0,0,1,.11.68,3.38,3.38,0,0,1-.11.83,3.77,3.77,0,0,1-.79,1.48,2.39,2.39,0,0,1-.59.48,1.38,1.38,0,0,1-.59.2.75.75,0,0,1-.47-.14,1,1,0,0,1-.31-.43A1.84,1.84,0,0,1,84.57,263.54Z" style="fill: rgb(250, 250, 250); transform-origin: 86.4159px 255.952px;" id="el2ra4uqnrs5q" class="animable"></path><path d="M91,246.68c.21-.35.44-.7.68-1a11.06,11.06,0,0,1,.79-1,8.49,8.49,0,0,1,.91-.89,8.62,8.62,0,0,1,1-.74,4.16,4.16,0,0,1,1.44-.54,1.6,1.6,0,0,1,1.08.18,1.64,1.64,0,0,1,.69.86,4.06,4.06,0,0,1,.24,1.5,7.25,7.25,0,0,1-.17,1.59,8.42,8.42,0,0,1-.45,1.34,8.88,8.88,0,0,1-.6,1.15c-.22.35-.42.68-.62,1s-.36.59-.5.86a2.43,2.43,0,0,0-.28.79L95,253.45l-1.8,1L93,252.77a2.3,2.3,0,0,1,.08-1,5.25,5.25,0,0,1,.42-1c.18-.32.38-.64.6-1s.42-.66.61-1a6.24,6.24,0,0,0,.49-1.05,3.22,3.22,0,0,0,.2-1.12c0-.45-.11-.74-.34-.88s-.52-.1-.91.13a3.47,3.47,0,0,0-.75.55,6.62,6.62,0,0,0-.52.58c-.14.18-.27.34-.37.49a1.31,1.31,0,0,1-.32.31c-.25.14-.43.1-.55-.11Zm1.56,12.26a2.94,2.94,0,0,1,.11-.82,4.19,4.19,0,0,1,.31-.79,3.72,3.72,0,0,1,.47-.68,2.49,2.49,0,0,1,.59-.5,1.21,1.21,0,0,1,.59-.18.75.75,0,0,1,.47.14.88.88,0,0,1,.32.42,1.78,1.78,0,0,1,.11.69,3,3,0,0,1-.11.83,3.71,3.71,0,0,1-.32.8,3.58,3.58,0,0,1-.47.68A2.39,2.39,0,0,1,94,260a1.23,1.23,0,0,1-.59.19.7.7,0,0,1-.47-.13,1,1,0,0,1-.31-.43A1.87,1.87,0,0,1,92.54,258.94Z" style="fill: rgb(250, 250, 250); transform-origin: 94.4159px 251.338px;" id="ellsngqnf8ecf" class="animable"></path><path d="M99,242.08c.21-.35.44-.7.68-1.05s.51-.67.79-1a10.78,10.78,0,0,1,.91-.88,7.17,7.17,0,0,1,1.06-.74,4,4,0,0,1,1.43-.55,1.53,1.53,0,0,1,1.77,1,4,4,0,0,1,.25,1.5,6.53,6.53,0,0,1-.18,1.58,8.22,8.22,0,0,1-.45,1.35,8.74,8.74,0,0,1-.6,1.14c-.21.36-.42.68-.61,1a9.17,9.17,0,0,0-.51.86,2.59,2.59,0,0,0-.28.79l-.23,1.71-1.79,1-.19-1.71a2.3,2.3,0,0,1,.08-1,6,6,0,0,1,.42-1c.18-.32.38-.65.6-1s.42-.66.62-1a7.08,7.08,0,0,0,.48-1,3.26,3.26,0,0,0,.2-1.12,1,1,0,0,0-.33-.89.93.93,0,0,0-.92.13,3.85,3.85,0,0,0-.75.56,6.2,6.2,0,0,0-.51.57l-.38.5a1.52,1.52,0,0,1-.32.31c-.24.14-.43.1-.54-.11Zm1.56,12.26a3.3,3.3,0,0,1,.11-.82,3.63,3.63,0,0,1,.32-.79,3.25,3.25,0,0,1,.46-.68,2.53,2.53,0,0,1,.6-.5,1.18,1.18,0,0,1,.58-.18.74.74,0,0,1,.47.13,1,1,0,0,1,.32.43,1.78,1.78,0,0,1,.12.69,3,3,0,0,1-.12.83,3.63,3.63,0,0,1-.32.79,3.29,3.29,0,0,1-.47.68,2.4,2.4,0,0,1-.58.49,1.39,1.39,0,0,1-.6.19.71.71,0,0,1-.46-.13.94.94,0,0,1-.32-.44A2,2,0,0,1,100.51,254.34Z" style="fill: rgb(250, 250, 250); transform-origin: 102.446px 246.714px;" id="elu0nqwi2fkl" class="animable"></path><path d="M106.93,237.48a11,11,0,0,1,.68-1,10.38,10.38,0,0,1,.79-1,8.51,8.51,0,0,1,.91-.89,7.25,7.25,0,0,1,1-.73,4,4,0,0,1,1.43-.55,1.62,1.62,0,0,1,1.09.18,1.72,1.72,0,0,1,.69.86,4.08,4.08,0,0,1,.24,1.51,6.53,6.53,0,0,1-.18,1.58,8.22,8.22,0,0,1-.45,1.35,10.13,10.13,0,0,1-.59,1.14l-.62,1c-.2.31-.36.59-.51.87a2.56,2.56,0,0,0-.27.79l-.24,1.71-1.79,1-.19-1.7a2.31,2.31,0,0,1,.09-1,4.75,4.75,0,0,1,.42-1c.17-.32.37-.65.59-1s.43-.65.62-1a7.08,7.08,0,0,0,.48-1,3.06,3.06,0,0,0,.2-1.13,1,1,0,0,0-.33-.88c-.22-.14-.53-.09-.92.13a3.49,3.49,0,0,0-.75.56,5.12,5.12,0,0,0-.51.57c-.15.18-.27.35-.38.49a1,1,0,0,1-.32.31c-.24.14-.42.11-.54-.1Zm1.55,12.25a3,3,0,0,1,.12-.82,3.81,3.81,0,0,1,.31-.79,3.93,3.93,0,0,1,.47-.68A2.44,2.44,0,0,1,110,247a1.31,1.31,0,0,1,.58-.19.87.87,0,0,1,.48.14.94.94,0,0,1,.31.43,1.78,1.78,0,0,1,.12.69,3,3,0,0,1-.12.82,3.69,3.69,0,0,1-.31.8,3.76,3.76,0,0,1-.48.68,2.35,2.35,0,0,1-.58.48,1.26,1.26,0,0,1-.59.2.69.69,0,0,1-.47-.14.89.89,0,0,1-.31-.43A1.79,1.79,0,0,1,108.48,249.73Z" style="fill: rgb(250, 250, 250); transform-origin: 110.346px 242.167px;" id="els5s8s7qoywb" class="animable"></path><path d="M113.87,289.46c-.21.35-.44.7-.68,1.05s-.51.67-.79,1a9.41,9.41,0,0,1-.91.88,7.17,7.17,0,0,1-1.06.74,4,4,0,0,1-1.43.55,1.63,1.63,0,0,1-1.09-.18,1.75,1.75,0,0,1-.68-.87,4,4,0,0,1-.24-1.5,6.54,6.54,0,0,1,.17-1.58,8.22,8.22,0,0,1,.45-1.35,8.74,8.74,0,0,1,.6-1.14c.21-.35.42-.68.61-1a9.26,9.26,0,0,0,.51-.87,2.59,2.59,0,0,0,.28-.79l.23-1.71,1.79-1,.19,1.71a2.3,2.3,0,0,1-.08,1,6.13,6.13,0,0,1-.42,1c-.18.32-.38.65-.6,1s-.42.66-.62,1a7.08,7.08,0,0,0-.48,1.05,3.26,3.26,0,0,0-.2,1.12c0,.46.11.75.33.89s.53.09.92-.13a3.49,3.49,0,0,0,.75-.56c.2-.2.37-.39.52-.57l.37-.49a1,1,0,0,1,.32-.31c.24-.14.43-.11.54.1Zm-1.56-12.26a3.38,3.38,0,0,1-.11.83,3.85,3.85,0,0,1-.32.79,3.44,3.44,0,0,1-.47.68,2.27,2.27,0,0,1-.59.49,1.31,1.31,0,0,1-.58.19.82.82,0,0,1-.47-.14.89.89,0,0,1-.32-.43,1.78,1.78,0,0,1-.12-.69,3,3,0,0,1,.12-.82,3.77,3.77,0,0,1,.79-1.48,2.35,2.35,0,0,1,.58-.48,1.29,1.29,0,0,1,.59-.2.68.68,0,0,1,.47.14.91.91,0,0,1,.32.43A2,2,0,0,1,112.31,277.2Z" style="fill: rgb(250, 250, 250); transform-origin: 110.429px 284.822px;" id="elk726volsoxo" class="animable"></path><path d="M105.89,294.06a9.88,9.88,0,0,1-.68,1.05,10.38,10.38,0,0,1-.79,1,8.51,8.51,0,0,1-.91.89,6.54,6.54,0,0,1-1.05.73,4,4,0,0,1-1.43.55,1.62,1.62,0,0,1-1.09-.18,1.68,1.68,0,0,1-.69-.86,4.06,4.06,0,0,1-.24-1.5,6.61,6.61,0,0,1,.18-1.59,8.55,8.55,0,0,1,.45-1.35,8.74,8.74,0,0,1,.6-1.14c.21-.35.42-.68.61-1s.37-.59.51-.86a2.39,2.39,0,0,0,.27-.79l.24-1.72,1.79-1,.19,1.7a2.35,2.35,0,0,1-.09,1,5.51,5.51,0,0,1-.41,1c-.18.33-.38.65-.6,1s-.43.66-.62,1a7.46,7.46,0,0,0-.48,1,3.09,3.09,0,0,0-.2,1.13,1,1,0,0,0,.33.88c.22.14.53.1.92-.13a3.83,3.83,0,0,0,.75-.55,5.17,5.17,0,0,0,.51-.58c.15-.18.27-.35.38-.49a1,1,0,0,1,.32-.31c.24-.14.42-.11.54.1Zm-1.55-12.25a3.36,3.36,0,0,1-.11.82,4.51,4.51,0,0,1-.32.79,3.58,3.58,0,0,1-.47.68,2.08,2.08,0,0,1-.59.49,1.2,1.2,0,0,1-.58.19.87.87,0,0,1-.48-.14.91.91,0,0,1-.31-.42,1.79,1.79,0,0,1-.12-.7,3,3,0,0,1,.12-.82,3.69,3.69,0,0,1,.31-.8,3.76,3.76,0,0,1,.48-.68,2.35,2.35,0,0,1,.58-.48,1.29,1.29,0,0,1,.59-.2.75.75,0,0,1,.47.14,1,1,0,0,1,.32.43A2.06,2.06,0,0,1,104.34,281.81Z" style="fill: rgb(250, 250, 250); transform-origin: 102.449px 289.423px;" id="ellhmgloljqz" class="animable"></path><path d="M97.92,298.67c-.21.35-.43.7-.68,1a9.52,9.52,0,0,1-.79,1,7.65,7.65,0,0,1-.91.89,7.3,7.3,0,0,1-1.05.74,4,4,0,0,1-1.43.54,1.62,1.62,0,0,1-1.09-.18,1.64,1.64,0,0,1-.69-.86,4.06,4.06,0,0,1-.24-1.5,6.67,6.67,0,0,1,.18-1.59,8.42,8.42,0,0,1,.45-1.34,9.5,9.5,0,0,1,.59-1.15l.62-1c.19-.3.36-.59.51-.86a2.65,2.65,0,0,0,.27-.79l.24-1.72,1.79-1,.19,1.71a2.47,2.47,0,0,1-.09,1,4.9,4.9,0,0,1-.42,1,10.19,10.19,0,0,1-.59,1c-.22.33-.43.66-.62,1a8.33,8.33,0,0,0-.49,1.05,3.21,3.21,0,0,0-.19,1.12,1,1,0,0,0,.33.88c.22.14.53.1.92-.13a3.47,3.47,0,0,0,.75-.55,5.17,5.17,0,0,0,.51-.58l.38-.49a1.15,1.15,0,0,1,.32-.31c.24-.14.42-.1.54.11Zm-1.55-12.26a3,3,0,0,1-.12.82,3.61,3.61,0,0,1-.31.79,3.29,3.29,0,0,1-.47.68,2.49,2.49,0,0,1-.59.5,1.18,1.18,0,0,1-.58.18.8.8,0,0,1-.48-.14.86.86,0,0,1-.31-.42,1.78,1.78,0,0,1-.12-.69,3,3,0,0,1,.12-.83,3.69,3.69,0,0,1,.31-.8,4.15,4.15,0,0,1,.48-.68,2.35,2.35,0,0,1,.58-.48,1.23,1.23,0,0,1,.59-.19.69.69,0,0,1,.47.13.94.94,0,0,1,.31.43A1.86,1.86,0,0,1,96.37,286.41Z" style="fill: rgb(250, 250, 250); transform-origin: 94.4791px 294.007px;" id="ela5vfoj8abkn" class="animable"></path><path d="M90,303.27c-.21.35-.44.7-.68,1.05s-.51.67-.79,1a8.42,8.42,0,0,1-.91.88,6.59,6.59,0,0,1-1,.74,4,4,0,0,1-1.44.55A1.73,1.73,0,0,1,84,307.3a1.71,1.71,0,0,1-.69-.87,4.06,4.06,0,0,1-.24-1.5,6.53,6.53,0,0,1,.18-1.58,7.37,7.37,0,0,1,.44-1.35,8.74,8.74,0,0,1,.6-1.14l.62-1c.19-.3.36-.59.5-.86a2.35,2.35,0,0,0,.28-.79l.24-1.71,1.79-1,.18,1.71a2.3,2.3,0,0,1-.08,1,5.25,5.25,0,0,1-.42,1c-.18.32-.37.65-.59,1s-.43.66-.62,1a7.13,7.13,0,0,0-.49,1.05,3.26,3.26,0,0,0-.2,1.12c0,.45.11.75.34.89a.91.91,0,0,0,.91-.13,3.85,3.85,0,0,0,.75-.56c.2-.2.37-.39.52-.57l.38-.5a1.16,1.16,0,0,1,.32-.31c.24-.14.42-.1.54.11ZM88.4,291a2.91,2.91,0,0,1-.12.82,4.19,4.19,0,0,1-.31.79,3.65,3.65,0,0,1-.47.69,2.44,2.44,0,0,1-.59.49,1.21,1.21,0,0,1-.59.18.76.76,0,0,1-.47-.13,1,1,0,0,1-.32-.43,2,2,0,0,1-.11-.69,3.44,3.44,0,0,1,.11-.83,3.63,3.63,0,0,1,.32-.79,3.72,3.72,0,0,1,.47-.68,2.44,2.44,0,0,1,.59-.49,1.35,1.35,0,0,1,.59-.19.74.74,0,0,1,.47.13,1.06,1.06,0,0,1,.31.44A1.78,1.78,0,0,1,88.4,291Z" style="fill: rgb(250, 250, 250); transform-origin: 86.5341px 298.63px;" id="elkqhitat4ts" class="animable"></path></g></g><g id="freepik--Lines--inject-77" class="animable" style="transform-origin: 249.97px 99.58px;"><path d="M275.05,173.26a62,62,0,1,1,62-62A62,62,0,0,1,275.05,173.26Zm0-123a61,61,0,1,0,61,61A61.08,61.08,0,0,0,275.05,50.22Z" style="fill: rgb(224, 224, 224); transform-origin: 275.05px 111.26px;" id="eluh22lpejdwd" class="animable"></path><path d="M251.66,177.14a62.3,62.3,0,1,1,62.25-62.3A62.34,62.34,0,0,1,251.66,177.14Zm0-123.64A61.34,61.34,0,1,0,313,114.84,61.38,61.38,0,0,0,251.66,53.5Z" style="fill: rgb(224, 224, 224); transform-origin: 251.61px 114.84px;" id="el1ilfgcq9enm" class="animable"></path><path d="M225.24,178.67a62.3,62.3,0,1,1,62.25-62.29A62.34,62.34,0,0,1,225.24,178.67Zm0-123.63a61.34,61.34,0,1,0,61.29,61.34A61.38,61.38,0,0,0,225.24,55Z" style="fill: rgb(224, 224, 224); transform-origin: 225.19px 116.37px;" id="el676o199tz24" class="animable"></path><path d="M269.81,153.78a62.3,62.3,0,1,1,62.25-62.3A62.35,62.35,0,0,1,269.81,153.78Zm0-123.64A61.34,61.34,0,1,0,331.1,91.48,61.38,61.38,0,0,0,269.81,30.14Z" style="fill: rgb(224, 224, 224); transform-origin: 269.76px 91.48px;" id="elnw3cj8euhg" class="animable"></path><path d="M259.87,157.77a62.3,62.3,0,1,1,62.25-62.29A62.34,62.34,0,0,1,259.87,157.77Zm0-123.63a61.34,61.34,0,1,0,61.29,61.34A61.38,61.38,0,0,0,259.87,34.14Z" style="fill: rgb(224, 224, 224); transform-origin: 259.82px 95.47px;" id="elict9xo46dt" class="animable"></path><path d="M259.87,153a36.63,36.63,0,1,1,36.59-36.62A36.65,36.65,0,0,1,259.87,153Zm0-72.29a35.67,35.67,0,1,0,35.63,35.67A35.69,35.69,0,0,0,259.87,80.71Z" style="fill: rgb(224, 224, 224); transform-origin: 259.83px 116.37px;" id="elvb4mqxdyk2" class="animable"></path><path d="M238.85,126.51A33.11,33.11,0,1,1,271.94,93.4,33.13,33.13,0,0,1,238.85,126.51Zm0-65.26A32.15,32.15,0,1,0,271,93.4,32.17,32.17,0,0,0,238.85,61.25Z" style="fill: rgb(224, 224, 224); transform-origin: 238.83px 93.4px;" id="el0s0w8gazgrep" class="animable"></path><path d="M247.63,131.21A33.11,33.11,0,1,1,280.72,98.1,33.13,33.13,0,0,1,247.63,131.21Zm0-65.26A32.15,32.15,0,1,0,279.76,98.1,32.17,32.17,0,0,0,247.63,66Z" style="fill: rgb(224, 224, 224); transform-origin: 247.61px 98.1px;" id="elthik97gb13n" class="animable"></path><path d="M227.53,113.56a33.11,33.11,0,1,1,33.09-33.11A33.13,33.13,0,0,1,227.53,113.56Zm0-65.26a32.15,32.15,0,1,0,32.12,32.15A32.18,32.18,0,0,0,227.53,48.3Z" style="fill: rgb(224, 224, 224); transform-origin: 227.51px 80.45px;" id="ellpibexqjvvn" class="animable"></path><path d="M240.7,114.15A31.36,31.36,0,1,1,272,82.79,31.38,31.38,0,0,1,240.7,114.15Zm0-61.76a30.4,30.4,0,1,0,30.37,30.4A30.43,30.43,0,0,0,240.7,52.39Z" style="fill: rgb(224, 224, 224); transform-origin: 240.64px 82.7901px;" id="elcmqawna9f4e" class="animable"></path><path d="M273.21,118.61A36.63,36.63,0,1,1,309.81,82,36.65,36.65,0,0,1,273.21,118.61Zm0-72.28A35.66,35.66,0,1,0,308.85,82,35.69,35.69,0,0,0,273.21,46.33Z" style="fill: rgb(224, 224, 224); transform-origin: 273.18px 81.98px;" id="eln4xnsznoik" class="animable"></path><path d="M247.63,145.09a62.3,62.3,0,1,1,62.26-62.3A62.34,62.34,0,0,1,247.63,145.09Zm0-123.63a61.34,61.34,0,1,0,61.29,61.33A61.37,61.37,0,0,0,247.63,21.46Z" style="fill: rgb(224, 224, 224); transform-origin: 247.59px 82.79px;" id="elymd3gconl2d" class="animable"></path><path d="M225.24,153.78h0a62.3,62.3,0,1,1,62.25-62.3,61.81,61.81,0,0,1-62.25,62.3Zm0-123.64a61.34,61.34,0,0,0,0,122.68h0a61.34,61.34,0,0,0,0-122.68Z" style="fill: rgb(224, 224, 224); transform-origin: 225.191px 91.4808px;" id="elkwjsktchc3r" class="animable"></path></g><g id="freepik--Character--inject-77" class="animable animator-active" style="transform-origin: 251.507px 231.594px;"><g id="freepik--character--inject-77" class="animable" style="transform-origin: 251.507px 231.594px;"><g id="freepik--Bottom--inject-77" class="animable" style="transform-origin: 256.068px 294.372px;"><path d="M285.11,359.12a15.19,15.19,0,0,1-2.23-9.26c0-.48-.05-7.24.42-16.26l-19.17-.26c1.74,10,3.45,18.8,3.51,20.13a4.93,4.93,0,0,1,.16.84c.13,4.7,5.77,7.1,10.19,10.13a81.56,81.56,0,0,0,11.94,7c3.2,1.44,9.61,1.42,10.36-.54C294.9,367.21,288,364.41,285.11,359.12Z" style="fill: rgb(255, 168, 167); transform-origin: 282.21px 352.897px;" id="elb9qjbexwkaj" class="animable"></path><path d="M309.43,375.76c.27,0,.76,2.83-.69,4.08-1.66,1.44-6.59,3.85-13.21,3.2s-10.23-2.5-12.92-4.54-6.47-4.92-9.46-5.47c-2.79-.52-5.83-1.64-6.74-2.44s-.87-4.42-.87-4.42Z" style="fill: rgb(38, 50, 56); transform-origin: 287.636px 374.659px;" id="elqbpisjidsb" class="animable"></path><path d="M267.48,352.15s-.5,0-.65.87c-.17,1-.32,3.92-.71,5.57a27.92,27.92,0,0,0-.43,8.83c.41,1.85,5,3,7.88,4a37.15,37.15,0,0,1,9.49,5.4,28.09,28.09,0,0,0,14,4.6c6.56-.07,10.77-1.87,12-4.15,1.73-3.13-.86-5.9-3.47-7.37-5.59-3.15-11.87-5.15-16.92-9.21a6.59,6.59,0,0,1-2.2-2.4,13.42,13.42,0,0,1-1-3.58,1.92,1.92,0,0,0-.22-.75,2,2,0,0,0-1.55-.7,20.4,20.4,0,0,0-4.34-.28,6.68,6.68,0,0,0-4.22,1.59c-.94.94-.65,2.64-1.41,3.76a.93.93,0,0,1-.73.49,1,1,0,0,1-.68-.46,23.38,23.38,0,0,1-1.26-2.24A6.51,6.51,0,0,0,269,354.2a3.39,3.39,0,0,1-1.14-1A6.28,6.28,0,0,1,267.48,352.15Z" style="fill: rgb(55, 71, 79); transform-origin: 287.57px 366.785px;" id="el0aimyf37f4xo" class="animable"></path><path d="M302.6,368.3c-8.25-.69-13.66,7.89-14,11.36a24.69,24.69,0,0,0,8.47,1.76c6.56-.07,11-1.87,12.29-4.15C310.85,374.61,309.39,370.57,302.6,368.3Z" style="fill: rgb(250, 250, 250); transform-origin: 299.245px 374.84px;" id="elp1gvpm1hqct" class="animable"></path><path d="M290.61,370.05a.55.55,0,0,1-.3-.09.44.44,0,0,1-.08-.62,11.46,11.46,0,0,1,8.51-3.44.44.44,0,1,1-.08.88,10.64,10.64,0,0,0-7.7,3.1A.44.44,0,0,1,290.61,370.05Z" style="fill: rgb(240, 240, 240); transform-origin: 294.639px 367.973px;" id="ell00a3uzcrs" class="animable"></path><path d="M286.46,367.88a.55.55,0,0,1-.3-.09.44.44,0,0,1-.08-.62,11.43,11.43,0,0,1,8.51-3.44.44.44,0,0,1,.42.48.45.45,0,0,1-.5.4,10.56,10.56,0,0,0-7.69,3.1A.46.46,0,0,1,286.46,367.88Z" style="fill: rgb(240, 240, 240); transform-origin: 290.5px 365.803px;" id="el6vhbg6twu05" class="animable"></path><path d="M282.61,365.38a.53.53,0,0,1-.3-.09.43.43,0,0,1-.08-.62,11.42,11.42,0,0,1,8.5-3.44.44.44,0,1,1-.07.88,10.6,10.6,0,0,0-7.7,3.1A.49.49,0,0,1,282.61,365.38Z" style="fill: rgb(240, 240, 240); transform-origin: 286.635px 363.303px;" id="elrhrnk8vdc1" class="animable"></path><path d="M278.83,362.88a.5.5,0,0,1-.29-.09.43.43,0,0,1-.1-.62c1.77-2.23,5.84-3.78,9.3-3.5a.43.43,0,0,1,.42.47.45.45,0,0,1-.5.41c-3.11-.25-6.91,1.17-8.48,3.15A.48.48,0,0,1,278.83,362.88Z" style="fill: rgb(240, 240, 240); transform-origin: 283.256px 360.759px;" id="el5svb2x5bvpb" class="animable"></path><path d="M211.22,331.19c-.3,10.75-.71,21.77-1.42,27.52-.3,2.38-2.89,18.39-2.7,23.4.28,7.53,10.26,7.88,11.41,3.57s4.36-23.23,4.69-25.15c1-7.13,4.93-15.88,8.46-28.88Z" style="fill: rgb(255, 168, 167); transform-origin: 219.375px 359.824px;" id="eluiwbxim4tg" class="animable"></path><path d="M221.48,389.22c-.47,4.33-1.31,7.18-3,9.65s-4.82,3.13-7.88,2.23-6.92-3.07-7.63-6.86-1.1-6.38-.21-10.37Z" style="fill: rgb(38, 50, 56); transform-origin: 211.862px 392.677px;" id="el7g0gprix1x6" class="animable"></path><path d="M210,357.16c-1.28,0-1.93,5.85-2.94,11.65-1.08,6.23-3.17,8.72-4.11,13.82-1.08,5.82-.19,8.49,1.8,12.14s9.46,7.48,13.46,2.58c3.26-4,3.61-8.58,3.6-14.44a126.37,126.37,0,0,1,1.11-14.82c.46-4.37,1.69-8.75.6-9.29-.11.64-.23,1.45-.35,2.08a9.76,9.76,0,0,1-.53,2.32c-.14.32-.44.65-.53.11a3.33,3.33,0,0,1,0-1.09c.26-1.61-.59-1.78-1-1.92a59.61,59.61,0,0,0-5.87-1.08c-1-.11-4.32-.41-4.78.1a3.54,3.54,0,0,0-.51,1.67c-.15.88-.39,1.52-.41,1.24,0-.63.18-2.27.21-2.67s.13-.89.15-1.27S209.93,357.54,210,357.16Z" style="fill: rgb(55, 71, 79); transform-origin: 213.222px 378.415px;" id="el27m35eo8rvu" class="animable"></path><path d="M202.42,386a14,14,0,0,0,2,9c2,3.65,10.07,7.52,14.07,2.62,2-2.43,2.63-5.4,3-8.43C219.41,385.2,206.13,382.85,202.42,386Z" style="fill: rgb(250, 250, 250); transform-origin: 211.907px 392.234px;" id="elwz4z1bxhnrb" class="animable"></path><path d="M219,382.72l-.16-.05S213,380,207.23,381a.49.49,0,0,1-.56-.37.46.46,0,0,1,.38-.52,23.27,23.27,0,0,1,12.25,1.72.44.44,0,0,1,.19.61A.47.47,0,0,1,219,382.72Z" style="fill: rgb(240, 240, 240); transform-origin: 213.106px 381.319px;" id="elb8d9eqx58qn" class="animable"></path><path d="M207.72,376.68a.48.48,0,0,1-.39-.32.45.45,0,0,1,.32-.56c5.8-1.57,12,1.49,12.23,1.62a.43.43,0,0,1,.17.62.49.49,0,0,1-.64.16s-6.1-3-11.49-1.53A.46.46,0,0,1,207.72,376.68Z" style="fill: rgb(240, 240, 240); transform-origin: 213.716px 376.806px;" id="eluvsv1tld5co" class="animable"></path><path d="M208.11,372.57a.47.47,0,0,1-.38-.31.45.45,0,0,1,.31-.57c6.38-1.84,12.25,1.46,12.47,1.6a.45.45,0,0,1,.13.63.5.5,0,0,1-.66.12s-5.72-3.2-11.66-1.49A.38.38,0,0,1,208.11,372.57Z" style="fill: rgb(240, 240, 240); transform-origin: 214.213px 372.624px;" id="elg67n7th0kbf" class="animable"></path><path d="M208.61,368.53a.48.48,0,0,1-.38-.31.45.45,0,0,1,.31-.57c6-1.82,12.31,1.59,12.54,1.73a.44.44,0,0,1,.15.62.49.49,0,0,1-.66.14s-6.19-3.32-11.74-1.63A.55.55,0,0,1,208.61,368.53Z" style="fill: rgb(235, 235, 235); transform-origin: 214.755px 368.664px;" id="elcjur9zfce4r" class="animable"></path><path d="M220.54,187.26s-1.45,14-3.21,42.77c-1.7,27.89-1.86,42.65-2.06,46s-2.34,8.82-4.05,25.42c-1.48,14.44-1,44.71-1,44.71s1.64,3.08,7.53,3.85,9.3-1.53,9.3-1.53,12.15-39.25,14.8-49.18,10.95-49,10.95-49l5.2,32.26a167.52,167.52,0,0,0,1.09,23.95c1.57,14.59,6.46,36.82,6.46,36.82a22.76,22.76,0,0,0,9.43,1.41c6.18-.38,8.33-3.28,8.33-3.28s1.76-49,2.16-65.52-.39-66.49-1.86-87.93Z" style="fill: rgb(55, 71, 79); transform-origin: 247.86px 268.714px;" id="eljvswu923q4n" class="animable"></path><path d="M258.59,222.62l-5.85,29.53,5.19,33.2L256.31,253l5.8-27c4.32-.87,12.21-3.69,13.6-9.31C268.93,223.12,258.59,222.62,258.59,222.62Z" style="fill: rgb(38, 50, 56); transform-origin: 264.225px 251.02px;" id="elwvlyyquzl19" class="animable"></path></g><g id="freepik--Top--inject-77" class="animable" style="transform-origin: 251.507px 138.392px;"><g id="freepik--Arm--inject-77" class="animable" style="transform-origin: 204.492px 105.646px;"><path d="M231,81.32c.23-2,.48-3.92.71-5.88a11.55,11.55,0,0,0,.11-2.49,3.89,3.89,0,0,0-.92-2.26c-.4-.44-1.15-.72-1.56-.29a1.31,1.31,0,0,0-.24.47L225.75,80a22.24,22.24,0,0,1-1.54,2.67,21.88,21.88,0,0,0-1.55,3.24c-.57,1.8-1.42,3.81-1.68,4.56a15.41,15.41,0,0,1-6.31,8.33c-5.49,3.85-18.55,10.77-28.24,17.82-4,2.88-6.82,9-8.34,13.66-2.63,8,.4,11.5,6,10.72a29.32,29.32,0,0,0,16.22-8c9.55-9,19.29-21.18,24.33-25.39,1.23-1.17,3.55-2,4.31-2.89a8,8,0,0,0,2.18-5.44,47,47,0,0,0-.47-6.6,32,32,0,0,1-.26-5.27Q230.65,84.32,231,81.32Z" style="fill: rgb(255, 168, 167); transform-origin: 204.487px 105.646px;" id="elwndlsjtfrd9" class="animable"></path><path d="M231.83,73a3.89,3.89,0,0,0-.92-2.26c-.4-.44-1.15-.72-1.56-.29a1.31,1.31,0,0,0-.24.47l-3.42,9.23,0,.1a59.48,59.48,0,0,1,1,8.94c0,2.94-.74,5.36-.75,8.29a29.7,29.7,0,0,0,1,8.56,9.19,9.19,0,0,0,2-1.35,8,8,0,0,0,2.18-5.44,47,47,0,0,0-.47-6.6,32,32,0,0,1-.26-5.27q.26-3,.62-6c.23-2,.48-3.92.71-5.88A11.55,11.55,0,0,0,231.83,73Z" style="fill: rgb(242, 143, 143); transform-origin: 228.772px 88.1379px;" id="elr9r8et5coh" class="animable"></path></g><path d="M270.92,119.54c5-1.05,13.92-1,26.1-2.65,9.15-1.22,19.32-2.66,19.32-2.66l9.2,11-2,6.73c-3.59,2.55-20.41,5.1-31.63,7.65-4.48,1-8.91,4.67-9.32,9.32-.11,1.21-3.56-.36-7.89-9.11C272.62,135.72,270.25,125.49,270.92,119.54Z" style="fill: rgb(55, 71, 79); transform-origin: 298.172px 131.759px;" id="elvgxyuizr1sl" class="animable"></path><g id="freepik--Chest--inject-77" class="animable" style="transform-origin: 250.781px 138.392px;"><path d="M281.45,145.91c-.74-19.15-9.28-24.31-12.64-25.66l-13.64-2.57c-4.15.5-21.78,6-26.65,7.25-3.13.81-8.24,2.8-9.72,12.88-1.2,8.19-1.31,13.75,1.35,28.35,2.31,12.69,1,19.81-.91,37,16,11.94,53.74,9.22,63.34-3.67,0,0-.36-24-.3-30.6S281.65,151.09,281.45,145.91Z" style="fill: rgb(250, 250, 250); transform-origin: 250.285px 164.235px;" id="el97lvsmsjcga" class="animable"></path><path d="M261.1,119.89c1.8.87,10.1,8.38,11.55,21.27,2.69,23.7,3.33,46.46,4,67,2.79-1.47,7.58-4.07,8.82-7.82-.71-8.09-1.48-27.32-1.81-33-.47-8.11-1.14-21.26-1.79-26.46-.86-6.92-5.06-16.69-10.94-21.35a69.22,69.22,0,0,1-9.63-1.21Z" style="fill: rgb(0, 255, 136); transform-origin: 273.285px 163.24px;" id="el6j79xtc3x9b" class="animable"></path><g id="freepik--Head--inject-77" class="animable" style="transform-origin: 247.612px 97.382px;"><path d="M260.77,110.29c.83-4.63,5.49-9.43,7.6-13.46s3.26-6.9,3.07-10.57c-.12-2.18-1.46-5.13-3.06-5.76a10.1,10.1,0,0,0-7.3-12.66,32.76,32.76,0,0,1-4.45-1.28c-1.74-.74-2.12-2.16-3.52-3.37-2.41-2.08-6.5-2.16-8.09.94-1.59-2.1-3.79-2.07-6.32-1.44a4.32,4.32,0,0,0-3.36,4.85c-3.37-1.92-6.5.44-6.83,2.43-.24,1.47.06,2.71-.91,4-1.1,1.47-3.14,1.42-3.75.22-.37,2.09.43,3.68,2.69,3.59a4.73,4.73,0,0,0-.62,4,4.29,4.29,0,0,0,3.88,3,6.63,6.63,0,0,0,3.62,5.62c3.41,1.66,7.2,2.23,10.88,3l4.37.95c.26.05,1.58.14,1.73.37Z" style="fill: rgb(38, 50, 56); transform-origin: 247.612px 85.997px;" id="el2fa4oi8d772" class="animable"></path><path d="M266.44,104.34a3.7,3.7,0,0,1-5.18-1.14l.21,17.65s3,6.79-.31,12.21c-4.66-1.39-13.21-3.4-19.92-11.64l-.22-6.76a21.13,21.13,0,0,1-4.45-.1c-3.63-.53-6.66-3.66-7.66-7.61a41.75,41.75,0,0,1-.35-15.79,13.63,13.63,0,0,0,.23-3.82c-.32-3.39.3-5.35,1.2-8.19,4-3.19,15.37-3.76,24,1.57-1.89,4.38-.77,8.87,2.95,10.86-.19,1.39-.39,4.89,1.89,4.85,1.65,0,1.77-2.1,3.48-3.9s5.64-2.25,7.14.44C271.51,96.73,270,102.24,266.44,104.34Z" style="fill: rgb(255, 168, 167); transform-origin: 249.177px 104.894px;" id="elbh0llrtx8v" class="animable"></path><path d="M241,114.66c5.77-.63,11.26-1.25,14.3-5.41a35.9,35.9,0,0,0,3.54-6.81,27.93,27.93,0,0,1-2.55,8.55c-1.47,2.66-6.18,4.88-15.23,5.58Z" style="fill: rgb(242, 143, 143); transform-origin: 249.92px 109.505px;" id="el9h4mn1tlsm" class="animable"></path><path d="M244.92,91.48c-.19,1,.56,1.26,1.52,1.44s1.8.22,2-.78a1.79,1.79,0,1,0-3.52-.66Z" style="fill: rgb(38, 50, 56); transform-origin: 246.681px 91.5198px;" id="el4yer84irr5j" class="animable"></path><path d="M250.41,87.7,247,85a2.29,2.29,0,0,0,.4,3.14A2.13,2.13,0,0,0,250.41,87.7Z" style="fill: rgb(38, 50, 56); transform-origin: 248.481px 86.7873px;" id="elywo5twyetv" class="animable"></path><path d="M233.72,84.18l-3.43,2.75a2.11,2.11,0,0,0,3,.41A2.32,2.32,0,0,0,233.72,84.18Z" style="fill: rgb(38, 50, 56); transform-origin: 232.223px 85.9844px;" id="eloex6mybrd5r" class="animable"></path><path d="M231.7,91.5c.13,1,.94,1,1.92.89s1.75-.34,1.62-1.36a1.79,1.79,0,1,0-3.54.47Z" style="fill: rgb(38, 50, 56); transform-origin: 233.459px 90.8938px;" id="eldke5xv51605" class="animable"></path><path d="M234.38,97,240,99.58l1.84-11.06C239.76,87.75,237,92.82,234.38,97Z" style="fill: rgb(242, 143, 143); transform-origin: 238.11px 94.0109px;" id="elapfip39c68u" class="animable"></path><path d="M235.65,83.24a2.14,2.14,0,0,0-.43-.57,1.75,1.75,0,0,0-1.26-.5c-.21,0-.09.32.07.35l.31.08h0l.07,0,.06,0,0,0,.22.13h0l.05,0,.1.09,0,0,0,0,.08.1.06.1,0,0,0,0a.61.61,0,0,1,.05.12l0,.07s0,.06,0,0,0,0,0,0,0,0,0,.06a1.47,1.47,0,0,0,.08.3.35.35,0,0,0,.12.15c.05.05.14.12.2.06C235.94,83.92,235.79,83.5,235.65,83.24Z" style="fill: rgb(177, 102, 104); transform-origin: 234.816px 82.9888px;" id="elc3gb0cbnvne" class="animable"></path><path d="M245.3,83.05a1.56,1.56,0,0,0-.6.42,3.9,3.9,0,0,0-.4.51,2.69,2.69,0,0,0-.29.59,1.8,1.8,0,0,0-.1.33.86.86,0,0,0,0,.16v.11a1.52,1.52,0,0,0,.06.2c0,.1.21.26.29.12a2.12,2.12,0,0,0,.12-.2l.08-.18c0-.1.07-.2.1-.3a5.2,5.2,0,0,1,.26-.53,3,3,0,0,1,.34-.45,2.54,2.54,0,0,0,.44-.49C245.68,83.17,245.45,83,245.3,83.05Z" style="fill: rgb(177, 102, 104); transform-origin: 244.761px 84.293px;" id="el9ssik6wjt06" class="animable"></path><path d="M239.84,105.66c.92.62,1.49-.3,3.12-1s3.14.16,2.94-1.19-2.7-2.27-4.33-1.61S238.79,105,239.84,105.66Z" style="fill: rgb(177, 102, 104); transform-origin: 242.677px 103.753px;" id="elxyvup9xgh5" class="animable"></path><path d="M242.83,104.57a4.53,4.53,0,0,0-.44.23,2,2,0,0,1,1.74-2.18,1.69,1.69,0,0,1,1.39.35,1.46,1.46,0,0,1,.2.44C246,104.73,244.46,103.92,242.83,104.57Z" style="fill: rgb(242, 143, 143); transform-origin: 244.067px 103.695px;" id="ellbl0fd2uyz" class="animable"></path></g><path d="M220,126.85l6.93-4.51,12.7-1.88s6.62,6.61,7.71,33.65c1.2,29.4,1.42,60.65,1.42,60.65s-22.09,3-30.92-9.38A160.64,160.64,0,0,0,220,179.29c0-8.77-1.58-14.65-2.77-22.11C215,143.3,216.11,134.4,220,126.85Z" style="fill: rgb(0, 255, 136); transform-origin: 232.426px 167.77px;" id="eluudkm89elks" class="animable"></path><path d="M245.22,134.87l-1.6-13.49a15.25,15.25,0,0,1-2.51-3.72l-.07-2.21a1.46,1.46,0,0,0-1.42,1.58c-.06,1.6,0,3.43,0,3.43C242,124.15,243.71,129.2,245.22,134.87Z" style="fill: rgb(55, 71, 79); transform-origin: 242.407px 125.16px;" id="elonhc8gf7k6q" class="animable"></path><path d="M269.91,131.16l-2.37-10.89s-3.8-4-4.64-4.61a7,7,0,0,0-1.5-.9l.07,6.09A37.78,37.78,0,0,1,269.91,131.16Z" style="fill: rgb(55, 71, 79); transform-origin: 265.655px 122.96px;" id="eln7is2hig0da" class="animable"></path></g><path d="M217.08,156.43s.19-5.25-7.55-6.6c-18.18-3.15-29.29-5.93-31.69-11.23,1.07,2,3.3,2.76,6.24,2.36a29.3,29.3,0,0,0,16.22-8.05,105.12,105.12,0,0,0,8.13-8.37c7.67.09,11.9-1.26,18.54-2.2C229.9,132.9,228.74,153,217.08,156.43Z" style="fill: rgb(55, 71, 79); transform-origin: 203.085px 139.385px;" id="eljf7rd33upr" class="animable"></path><g id="freepik--arm--inject-77" class="animable" style="transform-origin: 290.298px 99.0617px;"><path d="M275.53,91.49c-.68-2.27-.7-5.58-1.24-7.78s-2.17-5.5-2.71-8.29-1-3-2-2.66c-.86.29-1.8,2.32-1,5.25C269.11,80.19,272.07,90.33,275.53,91.49Z" style="fill: rgb(242, 143, 143); transform-origin: 271.903px 82.0635px;" id="elndiqkxr2z1" class="animable"></path><path d="M267.24,74.88c.91,1.46,2.39,2.8,3.24,4.31s.9,2.37,1.87,5.54c.75,2.47,1,4.73,4.31,7.41C282.6,97,302.49,102.33,315,110.32c4.76,3.05,7.54,6,9.67,11.21,2.8,6.84.44,11.08-3.87,11.29a35.39,35.39,0,0,1-21.77-7c-12-9.3-23.35-18.57-29.59-22.85-1.55-1.21-3.6-2.61-4.57-3.48-1.8-1.62-2.75-4.23-3.26-6.6-.84-3.93-2.78-6.78-2.85-8.61a65.63,65.63,0,0,0-3-6.81c-.7-1.49-1.41-2.77-.84-3.63a2.33,2.33,0,0,1,.48-.45l-.11-.28a8.69,8.69,0,0,1-.44-1.72,2.24,2.24,0,0,1,.28-1.63,1.36,1.36,0,0,1,.45-.4s-.08-.15-.17-.35a4.2,4.2,0,0,1-.38-1.74,2.15,2.15,0,0,1,.68-1.59,1.44,1.44,0,0,1,1.66-.21,2.32,2.32,0,0,1,.49.45L259,67.2c.64-.61,1.13-.32,1.8.14.83.57,1.55,1.27,2.32,1.9a6,6,0,0,1,1.71,1.93C265.62,72.42,266.46,73.64,267.24,74.88Z" style="fill: rgb(255, 168, 167); transform-origin: 290.298px 99.0617px;" id="elzhd0bgf216" class="animable"></path><path d="M264.86,99.53c-2.19-1.78-3.05-4.69-3.64-7.33s-2.2-5.11-2.47-7.88a7.15,7.15,0,0,0,.61,2,38.57,38.57,0,0,1,2.25,5.81c.57,2.67,1.3,5.41,3.25,7.43Z" style="fill: rgb(177, 102, 104); transform-origin: 261.805px 91.94px;" id="elslu824h5sa" class="animable"></path><path d="M259,67.2c.94.94,3.07,3,3.94,3.92,1.26,1.38,1.87,3.25,2.71,4.89l.77,1.68a2.9,2.9,0,0,0,.42.8,4.17,4.17,0,0,0,.76.5,3.67,3.67,0,0,1-.84-.42,18,18,0,0,1-1.38-2.43c-.72-1.36-1.39-2.75-2.15-4.08-1.3-1.63-3-3.19-4.23-4.86Z" style="fill: rgb(177, 102, 104); transform-origin: 263.3px 73.095px;" id="els0riizds2fr" class="animable"></path><path d="M255.58,69.4a1.39,1.39,0,0,1,.9-.19,1.45,1.45,0,0,1,.75.57c.4.45.83.89,1.25,1.34a12.83,12.83,0,0,1,2.25,2.94,41.41,41.41,0,0,1,2.8,5.81,2.77,2.77,0,0,1,.18.9,7,7,0,0,0-.68-1.69c-1.49-2.66-2.7-5.48-4.78-7.75-.39-.48-.79-.94-1.17-1.42-.19-.27-.34-.51-.63-.6a1.55,1.55,0,0,0-.87.09Z" style="fill: rgb(177, 102, 104); transform-origin: 259.645px 74.9842px;" id="elp24c04iyp7" class="animable"></path><path d="M255.4,73.43c.94-.44,1.57.84,2.07,1.44a30,30,0,0,1,3.14,5.95,3.15,3.15,0,0,1,.2,1.35,6.47,6.47,0,0,0-1-2.44c-.43-.79-.83-1.59-1.23-2.38s-.9-1.54-1.34-2.31c-.44-.61-.88-1.86-1.81-1.61Z" style="fill: rgb(177, 102, 104); transform-origin: 258.109px 77.7549px;" id="elkq7dj13jsrb" class="animable"></path></g></g></g></g><defs>     <filter id="active" height="200%">         <feMorphology in="SourceAlpha" result="DILATED" operator="dilate" radius="2"></feMorphology>                <feFlood flood-color="#32DFEC" flood-opacity="1" result="PINK"></feFlood>        <feComposite in="PINK" in2="DILATED" operator="in" result="OUTLINE"></feComposite>        <feMerge>            <feMergeNode in="OUTLINE"></feMergeNode>            <feMergeNode in="SourceGraphic"></feMergeNode>        </feMerge>    </filter>    <filter id="hover" height="200%">        <feMorphology in="SourceAlpha" result="DILATED" operator="dilate" radius="2"></feMorphology>                <feFlood flood-color="#ff0000" flood-opacity="0.5" result="PINK"></feFlood>        <feComposite in="PINK" in2="DILATED" operator="in" result="OUTLINE"></feComposite>        <feMerge>            <feMergeNode in="OUTLINE"></feMergeNode>            <feMergeNode in="SourceGraphic"></feMergeNode>        </feMerge>            <feColorMatrix type="matrix" values="0   0   0   0   0                0   1   0   0   0                0   0   0   0   0                0   0   0   1   0 "></feColorMatrix>    </filter></defs></svg>